<?xml version="1.0" encoding="utf-8"?>
<!-- Generator: Adobe Illustrator 16.0.0, SVG Export Plug-In . SVG Version: 6.00 Build 0)  -->
<!DOCTYPE svg PUBLIC "-//W3C//DTD SVG 1.1//EN" "http://www.w3.org/Graphics/SVG/1.1/DTD/svg11.dtd">
<svg version="1.1" id="Layer_1" xmlns="http://www.w3.org/2000/svg" xmlns:xlink="http://www.w3.org/1999/xlink" x="0px" y="0px"
	 width="1400px" height="980px" viewBox="0 0 1400 980" enable-background="new 0 0 1400 980" xml:space="preserve">
<g>
	<g>
		<g>
			<g>
				<rect width="1399.993" height="980"/>
			</g>
		</g>
	</g>
	<g>
		<path fill="#2FBFFF" d="M338.831,589.145h-49.856c0.677,12.692,10.893,22.872,23.585,23.552v-0.541h2.688v0.541
			C327.943,612.017,338.154,601.837,338.831,589.145z"/>
		<path fill="#414042" d="M491.172,843.941c-7.316,0-13.271,5.954-13.271,13.27c0,7.316,5.954,13.271,13.271,13.271
			c7.316,0,13.271-5.955,13.271-13.271C504.442,849.896,498.488,843.941,491.172,843.941z"/>
		<path fill="#414042" d="M326.381,833.479h250.397c-1.394-10.637-10.486-18.772-21.298-18.772h-89.402h-28.997H347.68
			C336.86,814.707,327.768,822.843,326.381,833.479z"/>
		<path fill="#414042" d="M338.661,843.941c-7.319,0-13.271,5.954-13.271,13.27c0,7.316,5.952,13.271,13.271,13.271
			c7.316,0,13.27-5.955,13.27-13.271C351.931,849.896,345.977,843.941,338.661,843.941z"/>
		<path fill="#414042" d="M564.497,843.941c-7.316,0-13.271,5.954-13.271,13.27c0,7.316,5.955,13.271,13.271,13.271
			c7.316,0,13.27-5.955,13.27-13.271C577.767,849.896,571.813,843.941,564.497,843.941z"/>
		<path fill="#414042" d="M411.985,843.941c-7.316,0-13.271,5.954-13.271,13.27c0,7.316,5.954,13.271,13.271,13.271
			c7.319,0,13.273-5.955,13.273-13.271C425.258,849.896,419.304,843.941,411.985,843.941z"/>
		<rect x="439.771" y="563.324" fill="#414042" width="23.618" height="66.491"/>
		<rect x="439.771" y="683.656" fill="#414042" width="23.618" height="128.364"/>
		<path d="M399.451,560.636c-25.047,0-45.424-20.378-45.424-45.428V387.571c0-25.05,20.377-45.427,45.424-45.427h104.256
			c25.048,0,45.424,20.377,45.424,45.427v127.637c0,25.05-20.376,45.428-45.424,45.428h-37.628v2.688h37.628
			c26.529,0,48.114-21.585,48.114-48.116V387.571c0-26.531-21.585-48.117-48.114-48.117H399.451
			c-26.531,0-48.114,21.585-48.114,48.117v127.637c0,26.531,21.583,48.116,48.114,48.116h37.631v-2.688H399.451z"/>
		<rect x="437.082" y="563.324" width="2.689" height="66.491"/>
		<rect x="463.389" y="563.324" width="2.689" height="66.491"/>
		<rect x="437.082" y="683.656" width="2.689" height="128.364"/>
		<rect x="463.389" y="683.656" width="2.689" height="128.364"/>
		<g>
			<path fill="#2FBFFF" d="M399.451,560.636h37.631h28.997h37.628c25.048,0,45.424-20.378,45.424-45.428V387.571
				c0-25.05-20.376-45.427-45.424-45.427H399.451c-25.047,0-45.424,20.377-45.424,45.427v127.637
				C354.026,540.258,374.403,560.636,399.451,560.636z"/>
			<path fill="#2FBFFF" d="M541.22,632.503h-75.142h-2.689h-23.618h-2.689h-75.142c-13.363,0-24.234,10.871-24.234,24.233
				c0,13.361,10.871,24.229,24.234,24.229h75.142h2.689h23.618h2.689h75.142c13.363,0,24.234-10.868,24.234-24.229
				C565.454,643.374,554.583,632.503,541.22,632.503z"/>
		</g>
		<polygon points="463.389,563.324 466.078,563.324 466.078,560.636 437.082,560.636 437.082,563.324 439.771,563.324 		"/>
		<rect x="439.771" y="680.966" width="23.618" height="2.69"/>
		<path d="M541.22,632.503c13.363,0,24.234,10.871,24.234,24.233c0,13.361-10.871,24.229-24.234,24.229h-75.142v2.69h75.142
			c14.844,0,26.924-12.078,26.924-26.92c0-14.844-12.08-26.921-26.924-26.921h-75.142v2.688H541.22z"/>
		<rect x="439.771" y="629.815" width="23.618" height="2.688"/>
		<path d="M336.543,658.066c-0.085,0.014-0.614,0.081-1.455,0.115c0.76,14.167,12.493,25.475,26.851,25.475h75.142v-2.69h-75.142
			c-13.363,0-24.234-10.868-24.234-24.229c0-13.362,10.871-24.233,24.234-24.233h75.142v-2.688h-75.142
			c-14.423,0-26.198,11.407-26.86,25.667c0.673-0.027,1.084-0.076,1.101-0.079L336.543,658.066z"/>
		<rect x="437.082" y="629.815" width="2.689" height="2.688"/>
		<rect x="463.389" y="680.966" width="2.689" height="2.69"/>
		<rect x="437.082" y="680.966" width="2.689" height="2.69"/>
		<rect x="463.389" y="629.815" width="2.689" height="2.688"/>
		<path d="M335.089,658.182c-0.024-0.482-0.073-0.958-0.073-1.445c0-0.423,0.043-0.835,0.063-1.254
			c-2.514,0.104-8.878-0.103-13.663-4.293c-4.093-3.581-6.168-9.271-6.168-16.91v-18.896c-0.448,0.022-0.89,0.069-1.345,0.069
			c-0.453,0-0.895-0.047-1.343-0.069v18.896c0,8.461,2.39,14.837,7.104,18.951c4.934,4.306,11.093,4.971,14.445,4.971
			C334.47,658.201,334.799,658.194,335.089,658.182z"/>
		<path d="M312.561,612.155v0.541c0.448,0.024,0.89,0.065,1.343,0.065c0.455,0,0.899-0.041,1.345-0.065v-0.541H312.561z"/>
		<path d="M335.089,658.182c0.841-0.034,1.369-0.102,1.455-0.115l-0.363-2.663c-0.017,0.003-0.428,0.052-1.101,0.079
			c-0.02,0.419-0.063,0.831-0.063,1.254C335.016,657.224,335.064,657.699,335.089,658.182z"/>
		<path d="M288.975,589.145h49.856c-0.677,12.692-10.888,22.872-23.583,23.552v2.687c14.623-0.708,26.307-12.787,26.307-27.583
			v-1.345h-55.304v1.345c0,14.796,11.689,26.877,26.309,27.583v-2.687C299.868,612.017,289.652,601.837,288.975,589.145z"/>
		<path d="M315.248,615.383v-2.687c-0.446,0.024-0.89,0.065-1.345,0.065c-0.453,0-0.895-0.041-1.343-0.065v2.687
			c0.448,0.022,0.89,0.069,1.343,0.069C314.358,615.452,314.8,615.405,315.248,615.383z"/>
		<path fill="#2FBFFF" d="M568.178,589.145c0.677,12.692,10.891,22.872,23.583,23.552c0.448,0.024,0.892,0.065,1.344,0.065
			c0.454,0,0.897-0.041,1.345-0.065c12.691-0.68,22.904-10.859,23.581-23.552H568.178z"/>
		<path d="M591.761,615.383v18.896c0,7.64-2.076,13.329-6.167,16.908c-6.068,5.311-17.777,4.362-17.87,4.351l-0.36,2.663
			c0.117,0.017,4.127,0,5.535,0c3.35,0,9.511-0.665,14.445-4.971c4.714-4.114,7.106-10.49,7.106-18.951v-18.896
			c-0.448,0.022-0.892,0.069-1.345,0.069C592.653,615.452,592.209,615.405,591.761,615.383z"/>
		<path d="M565.454,586.455v1.345c0,14.796,11.684,26.875,26.307,27.583v-2.687c-12.693-0.68-22.906-10.859-23.583-23.552h49.854
			c-0.677,12.692-10.89,22.872-23.581,23.552v2.687c14.618-0.706,26.305-12.787,26.305-27.583v-1.345H565.454z"/>
		<path d="M593.105,612.762c-0.453,0-0.896-0.041-1.344-0.065v2.687c0.448,0.022,0.892,0.069,1.344,0.069
			c0.454,0,0.897-0.047,1.345-0.069v-2.687C594.002,612.721,593.559,612.762,593.105,612.762z"/>
		<path d="M555.48,814.707c10.812,0,19.904,8.136,21.298,18.772H326.381c1.387-10.637,10.479-18.772,21.298-18.772h89.402v-2.687
			H347.68c-12.713,0-23.308,9.979-24.122,22.716l-0.093,1.434h256.226l-0.09-1.434c-0.818-12.736-11.414-22.716-24.122-22.716
			h-89.402v2.687H555.48z"/>
		<polygon points="439.771,812.021 437.082,812.021 437.082,814.707 466.078,814.707 466.078,812.021 463.389,812.021 		"/>
		<path d="M338.661,841.252c-8.8,0-15.96,7.16-15.96,15.959c0,8.803,7.16,15.96,15.96,15.96c8.8,0,15.958-7.157,15.958-15.96
			C354.618,848.412,347.46,841.252,338.661,841.252z M338.661,870.482c-7.319,0-13.271-5.955-13.271-13.271
			c0-7.315,5.952-13.27,13.271-13.27c7.316,0,13.27,5.954,13.27,13.27C351.931,864.527,345.977,870.482,338.661,870.482z"/>
		<path d="M411.985,841.252c-8.8,0-15.96,7.16-15.96,15.959c0,8.803,7.161,15.96,15.96,15.96c8.802,0,15.963-7.157,15.963-15.96
			C427.948,848.412,420.788,841.252,411.985,841.252z M411.985,870.482c-7.316,0-13.271-5.955-13.271-13.271
			c0-7.315,5.954-13.27,13.271-13.27c7.319,0,13.273,5.954,13.273,13.27C425.258,864.527,419.304,870.482,411.985,870.482z"/>
		<path d="M491.172,841.252c-8.8,0-15.96,7.16-15.96,15.959c0,8.803,7.16,15.96,15.96,15.96s15.96-7.157,15.96-15.96
			C507.132,848.412,499.972,841.252,491.172,841.252z M491.172,870.482c-7.316,0-13.271-5.955-13.271-13.271
			c0-7.315,5.954-13.27,13.271-13.27c7.316,0,13.271,5.954,13.271,13.27C504.442,864.527,498.488,870.482,491.172,870.482z"/>
		<path d="M564.497,841.252c-8.8,0-15.96,7.16-15.96,15.959c0,8.803,7.16,15.96,15.96,15.96c8.802,0,15.959-7.157,15.959-15.96
			C580.457,848.412,573.299,841.252,564.497,841.252z M564.497,870.482c-7.316,0-13.271-5.955-13.271-13.271
			c0-7.315,5.955-13.27,13.271-13.27c7.316,0,13.27,5.954,13.27,13.27C577.767,864.527,571.813,870.482,564.497,870.482z"/>
	</g>
	<g>
		<rect x="689.3" y="565.11" fill="#F0DCAC" width="52.86" height="340.959"/>
		<rect x="164.846" y="565.11" fill="#F0DCAC" width="52.86" height="340.959"/>
		<path fill="#FFEBB8" d="M686.611,562.423h58.24h18.259c12.774,0,23.162-10.393,23.162-23.163
			c0-12.771-10.388-23.162-23.162-23.162H143.897c-12.773,0-23.165,10.391-23.165,23.162c0,12.771,10.391,23.163,23.165,23.163
			h18.26h58.239H686.611z"/>
		<polygon points="217.707,906.069 164.846,906.069 164.846,565.11 162.157,565.11 162.157,908.758 220.396,908.758 220.396,565.11 
			217.707,565.11 		"/>
		<polygon points="742.16,906.069 689.3,906.069 689.3,565.11 686.611,565.11 686.611,908.758 744.851,908.758 744.851,565.11 
			742.16,565.11 		"/>
		<rect x="220.396" y="562.423" width="466.215" height="2.688"/>
		<path d="M763.109,513.407H143.897c-14.255,0-25.854,11.6-25.854,25.853c0,14.254,11.599,25.851,25.854,25.851h18.26v-2.688h-18.26
			c-12.773,0-23.165-10.393-23.165-23.163c0-12.771,10.391-23.162,23.165-23.162h619.212c12.774,0,23.162,10.391,23.162,23.162
			c0,12.771-10.388,23.163-23.162,23.163h-18.259v2.688h18.259c14.255,0,25.853-11.597,25.853-25.851
			C788.962,525.007,777.364,513.407,763.109,513.407z"/>
		<polygon points="162.157,562.423 162.157,565.11 164.846,565.11 217.707,565.11 220.396,565.11 220.396,562.423 		"/>
		<polygon points="686.611,562.423 686.611,565.11 689.3,565.11 742.16,565.11 744.851,565.11 744.851,562.423 		"/>
	</g>
	<g>
		<path fill="#FFFFFF" d="M946.488,181.9c-5.927,0-10.75,4.822-10.75,10.75c0,5.927,4.823,10.751,10.75,10.751
			c5.931,0,10.749-4.824,10.749-10.751C957.237,186.722,952.419,181.9,946.488,181.9z"/>
		<path fill="#FF8E71" d="M1195.882,903.484V759.892c0-1.309-1.065-2.376-2.376-2.376h-15.818c-1.312,0-2.378,1.067-2.378,2.376
			v143.593c0,1.311,1.066,2.378,2.378,2.378h15.818C1194.816,905.862,1195.882,904.795,1195.882,903.484z"/>
		<path fill="#2FBFFF" d="M1235.683,455.802c7.887-0.685,14.097-7.324,14.097-15.385s-6.21-14.703-14.097-15.385v10.381v10.01
			V455.802z"/>
		<path fill="#FF8E71" d="M969.103,308.021V164.427c0-1.311-1.064-2.378-2.378-2.378h-40.472c-1.31,0-2.377,1.067-2.377,2.378
			v143.594c0,1.311,1.067,2.375,2.377,2.375h40.472C968.038,310.397,969.103,309.333,969.103,308.021z M958.844,299.648
			c0,0.743-0.602,1.344-1.346,1.344h-22.019c-0.743,0-1.345-0.601-1.345-1.344v-70.713c0-0.745,0.602-1.345,1.345-1.345h22.019
			c0.744,0,1.346,0.6,1.346,1.345V299.648z M946.488,206.09c-7.41,0-13.44-6.03-13.44-13.441s6.03-13.439,13.44-13.439
			c7.412,0,13.439,6.028,13.439,13.439S953.9,206.09,946.488,206.09z"/>
		<rect x="936.824" y="230.278" fill="#FFFFFF" width="19.33" height="68.026"/>
		<path fill="#B1FF8F" d="M1226.979,904.137l27.008-141.027c0.244-1.286-0.601-2.538-1.891-2.787l-15.533-2.972
			c-0.146-0.029-0.297-0.042-0.441-0.042c-1.143,0-2.127,0.812-2.338,1.931l-27.01,141.026c-0.243,1.288,0.603,2.538,1.887,2.782
			l14.659,2.814h2.148C1226.211,905.568,1226.822,904.955,1226.979,904.137z"/>
		<path fill="#FFFFFF" d="M1146.759,446.766c-0.743,0-1.343-0.602-1.343-1.342c0-0.746,0.6-1.345,1.343-1.345h86.235v-7.321h-69.344
			c-0.744,0-1.346-0.602-1.346-1.344c0-0.744,0.602-1.345,1.346-1.345h69.344v-9.094H1101.5v30.885h131.494v-9.093H1146.759z"/>
		<path fill="#FF8E71" d="M1001.006,667.464l4.476-27.659c-0.015-30.777-30.727-31.752-32.035-31.778
			c-0.434-0.009-0.836-0.225-1.081-0.583c-0.247-0.358-0.306-0.813-0.157-1.22l14.231-39.138H930.73l14.231,39.138
			c0.148,0.406,0.09,0.861-0.153,1.22c-0.247,0.358-0.651,0.574-1.085,0.583c-1.309,0.026-32.02,1.001-32.02,31.993l4.477,27.542
			c0.05,0.183,6.788,27.613,24.308,39.816h36.194C994.221,695.161,1000.939,667.744,1001.006,667.464z"/>
		<path fill="#2FBFFF" d="M1122.072,903.484V759.892c0-1.309-1.067-2.376-2.378-2.376h-15.817c-1.311,0-2.377,1.067-2.377,2.376
			v143.593c0,1.311,1.066,2.378,2.377,2.378h15.817C1121.005,905.862,1122.072,904.795,1122.072,903.484z"/>
		<path fill="#D1D3D4" d="M935.507,410.156v98.73h117.334v-98.73H935.507z M1010.612,440.244h-32.878
			c-5.787,0-10.493-4.709-10.493-10.496s4.706-10.491,10.493-10.491h32.878c5.786,0,10.492,4.705,10.492,10.491
			S1016.398,440.244,1010.612,440.244z"/>
		<path fill="#D1D3D4" d="M935.507,807.138v98.725h117.334v-98.725H935.507z M1010.612,837.22h-32.878
			c-5.787,0-10.493-4.71-10.493-10.496s4.706-10.493,10.493-10.493h32.878c5.786,0,10.492,4.707,10.492,10.493
			S1016.398,837.22,1010.612,837.22z"/>
		<path fill="#FFEBB8" d="M1197.312,710.064h-17.366h-143.592h-59.255h-37.027h-57.599v195.798h50.344v-98.725h-9.977
			c-0.743,0-1.345-0.601-1.345-1.344V779.74c0-0.743,0.602-1.346,1.345-1.346h142.664c0.743,0,1.345,0.603,1.345,1.346v26.054
			c0,0.743-0.602,1.344-1.345,1.344h-9.975v98.725h43.899c-0.38-0.712-0.618-1.517-0.618-2.378V759.892
			c0-2.792,2.272-5.064,5.066-5.064h15.817c2.794,0,5.067,2.272,5.067,5.064v143.593c0,0.861-0.239,1.666-0.619,2.378h12.196
			c-0.386-0.712-0.622-1.517-0.622-2.378V759.892c0-2.792,2.274-5.064,5.065-5.064h15.819c2.794,0,5.064,2.272,5.064,5.064v143.593
			c0,0.861-0.238,1.666-0.618,2.378h12.195c-0.385-0.712-0.621-1.517-0.621-2.378V759.892c0-2.792,2.273-5.064,5.065-5.064h15.818
			c2.792,0,5.065,2.272,5.065,5.064v143.593c0,0.861-0.239,1.666-0.619,2.378h11.093l-0.89-0.171
			c-2.738-0.523-4.544-3.185-4.022-5.929l27.007-141.031c0.52-2.692,3.147-4.561,5.927-4.021l15.537,2.972
			c2.742,0.531,4.546,3.191,4.024,5.933l-27.007,141.023c-0.082,0.435-0.236,0.839-0.421,1.225h43.22V710.064h-34.632H1197.312z"/>
		<path fill="#FFEBB8" d="M1010.612,421.945h-32.878c-4.3,0-7.804,3.501-7.804,7.804c0,4.305,3.504,7.806,7.804,7.806h32.878
			c4.302,0,7.804-3.501,7.804-7.806C1018.416,425.446,1014.914,421.945,1010.612,421.945z"/>
		<path fill="#FF8E71" d="M1158.977,903.484V759.892c0-1.309-1.066-2.376-2.375-2.376h-15.819c-1.311,0-2.375,1.067-2.375,2.376
			v143.593c0,1.311,1.064,2.378,2.375,2.378h15.819C1157.91,905.862,1158.977,904.795,1158.977,903.484z"/>
		<path fill="#FF8E71" d="M1203.878,308.021V164.427c0-1.311-1.065-2.378-2.378-2.378h-15.817c-1.311,0-2.378,1.067-2.378,2.378
			v143.594c0,1.311,1.067,2.375,2.378,2.375h15.817C1202.813,310.397,1203.878,309.333,1203.878,308.021z"/>
		<polygon fill="#B1FF8F" points="702.875,513.407 736.206,513.407 737.926,452.732 701.152,452.732 		"/>
		<path fill="#B1FF8F" d="M1235.683,489.079v10.381c7.887-0.682,14.097-7.323,14.097-15.385c0-8.062-6.21-14.703-14.097-15.387
			v10.381V489.079z"/>
		<path fill="#D1D3D4" d="M1032.373,308.021V164.427c0-1.311-1.067-2.378-2.378-2.378h-40.475c-1.311,0-2.375,1.067-2.375,2.378
			v143.594c0,1.311,1.064,2.375,2.375,2.375h40.475C1031.306,310.397,1032.373,309.333,1032.373,308.021z M1022.113,299.648
			c0,0.743-0.602,1.344-1.345,1.344h-22.021c-0.745,0-1.345-0.601-1.345-1.344v-70.713c0-0.745,0.6-1.345,1.345-1.345h22.021
			c0.743,0,1.345,0.6,1.345,1.345V299.648z M1009.759,206.09c-7.41,0-13.442-6.03-13.442-13.441s6.032-13.439,13.442-13.439
			c7.412,0,13.439,6.028,13.439,13.439S1017.171,206.09,1009.759,206.09z"/>
		<path fill="#2FBFFF" d="M1130.064,308.021V164.427c0-1.311-1.063-2.378-2.374-2.378h-15.819c-1.311,0-2.378,1.067-2.378,2.378
			v143.594c0,1.311,1.067,2.375,2.378,2.375h15.819C1129.001,310.397,1130.064,309.333,1130.064,308.021z"/>
		<path fill="#FFFFFF" d="M1145.416,489.079c0-0.743,0.6-1.345,1.343-1.345h86.235v-7.323h-69.344c-0.744,0-1.346-0.602-1.346-1.343
			c0-0.745,0.602-1.345,1.346-1.345h69.344v-9.092H1101.5v30.887h131.494v-9.097h-86.235
			C1146.016,490.421,1145.416,489.822,1145.416,489.079z"/>
		<path fill="#B1FF8F" d="M1166.97,308.021V164.427c0-1.311-1.067-2.378-2.377-2.378h-15.816c-1.312,0-2.376,1.067-2.376,2.378
			v143.594c0,1.311,1.064,2.375,2.376,2.375h15.816C1165.902,310.397,1166.97,309.333,1166.97,308.021z"/>
		<path fill="#2FBFFF" d="M1182.324,704.998v-40.475c0-1.311-1.067-2.378-2.379-2.378h-143.592c-1.311,0-2.378,1.067-2.378,2.378
			v40.475c0,1.313,1.067,2.38,2.378,2.38h143.592C1181.257,707.378,1182.324,706.311,1182.324,704.998z M1064.575,698.2
			c-7.41,0-13.442-6.027-13.442-13.438c0-7.412,6.032-13.441,13.442-13.441c7.412,0,13.439,6.029,13.439,13.441
			C1078.015,692.173,1071.987,698.2,1064.575,698.2z M1172.917,695.769c0,0.743-0.599,1.345-1.342,1.345h-70.717
			c-0.742,0-1.344-0.602-1.344-1.345v-22.021c0-0.743,0.602-1.345,1.344-1.345h70.717c0.743,0,1.342,0.602,1.342,1.345V695.769z"/>
		<rect x="1000.092" y="230.278" fill="#FFFFFF" width="19.332" height="68.026"/>
		<path fill="#FFFFFF" d="M1009.759,181.9c-5.929,0-10.754,4.822-10.754,10.75c0,5.927,4.825,10.751,10.754,10.751
			s10.75-4.824,10.75-10.751C1020.509,186.722,1015.688,181.9,1009.759,181.9z"/>
		<path fill="#FFFFFF" d="M658.589,111.655c-35.648-6.943-70.294,16.414-77.24,52.061c-6.941,35.652,16.411,70.302,52.059,77.245
			c35.652,6.943,70.304-16.411,77.244-52.061C717.595,153.247,694.241,118.598,658.589,111.655z M592.653,154.149
			c0.538-1.289,2.027-1.903,3.316-1.37c1.15,0.458,1.742,1.654,1.513,2.826c-0.029,0.148-0.088,0.319-0.142,0.484
			c-0.535,1.292-2.02,1.881-3.318,1.372C592.738,156.904,592.122,155.437,592.653,154.149z M591.493,167.142
			c1.384,0.161,2.375,1.442,2.19,2.799c0.012,0.078,0.002,0.129-0.012,0.202c-0.249,1.291-1.486,2.187-2.79,2.012
			c-1.393-0.17-2.385-1.422-2.219-2.806C588.833,167.938,590.085,166.966,591.493,167.142z M588.906,185.063
			c-0.221-1.384,0.734-2.697,2.112-2.895c1.382-0.219,2.673,0.726,2.893,2.109c0.054,0.295,0.039,0.604-0.015,0.877
			c-0.2,1.021-1.033,1.866-2.098,2.017C590.392,187.389,589.101,186.446,588.906,185.063z M598.164,199.561
			c-0.151,0.775-0.65,1.474-1.438,1.813c-1.274,0.577-2.77,0.029-3.348-1.248c-0.58-1.274-0.024-2.79,1.272-3.365
			c1.257-0.574,2.766-0.002,3.348,1.27C598.212,198.511,598.261,199.066,598.164,199.561z M641.106,118.754
			c1.391-0.12,2.628,0.923,2.748,2.316c0.003,0.229,0.01,0.471-0.031,0.688c-0.209,1.072-1.128,1.949-2.28,2.032
			c-1.394,0.122-2.636-0.923-2.751-2.314C638.674,120.087,639.71,118.869,641.106,118.754z M625.771,122.197
			c1.309-0.473,2.772,0.205,3.27,1.491c0.17,0.465,0.18,0.933,0.095,1.379c-0.159,0.821-0.716,1.567-1.583,1.886
			c-1.306,0.5-2.77-0.178-3.27-1.486C623.791,124.155,624.457,122.713,625.771,122.197z M611.926,129.666
			c1.143-0.835,2.724-0.577,3.558,0.568c0.428,0.573,0.572,1.294,0.441,1.966c-0.117,0.599-0.458,1.177-0.999,1.56
			c-1.14,0.808-2.721,0.579-3.53-0.556C610.552,132.085,610.815,130.482,611.926,129.666z M600.617,140.573
			c0.86-1.096,2.468-1.271,3.564-0.416c0.76,0.614,1.084,1.583,0.911,2.475c-0.073,0.378-0.249,0.753-0.492,1.067
			c-0.887,1.118-2.47,1.299-3.571,0.444C599.938,143.256,599.732,141.667,600.617,140.573z M605.317,213.73
			c-1.084,0.901-2.68,0.77-3.558-0.302c-0.901-1.08-0.772-2.682,0.307-3.579c1.053-0.882,2.678-0.746,3.577,0.332
			c0.502,0.592,0.687,1.372,0.548,2.095C606.086,212.822,605.772,213.357,605.317,213.73z M617.305,222.389
			c-0.063,0.324-0.202,0.66-0.392,0.958c-0.787,1.135-2.37,1.447-3.53,0.653c-1.138-0.785-1.452-2.373-0.655-3.533
			c0.794-1.165,2.37-1.452,3.53-0.658C617.099,220.389,617.493,221.417,617.305,222.389z M630.761,229.113
			c-0.017,0.103-0.037,0.202-0.088,0.317c-0.436,1.311-1.895,2.035-3.196,1.576c-1.337-0.443-2.061-1.875-1.598-3.204
			c0.443-1.333,1.868-2.04,3.199-1.596C630.315,226.63,631.005,227.871,630.761,229.113z M645.515,231.937
			c-0.236,1.218-1.339,2.11-2.617,2.046c-1.41-0.071-2.465-1.284-2.402-2.663c0.095-1.401,1.279-2.458,2.666-2.395
			c1.403,0.09,2.485,1.282,2.399,2.658C645.559,231.71,645.535,231.834,645.515,231.937z M647.267,176.375L646,176.307l0.597,1.116
			l-35.301,18.932l-1.199-2.231l34.673-18.596l1.318-26.122l2.531,0.132L647.267,176.375z M653.84,121.595
			c0.265-1.367,1.581-2.273,2.975-2.027c0.024,0.005,0.075,0.017,0.104,0.022c0.044,0.007,0.095,0.017,0.12,0.024
			c1.372,0.263,2.273,1.601,2.007,2.97c-0.273,1.394-1.603,2.268-2.975,2c-0.027-0.005-0.075-0.012-0.095-0.02
			c-0.056-0.012-0.078-0.015-0.102-0.017C654.474,124.297,653.575,122.962,653.84,121.595z M660.494,230.699
			c-0.19,0.97-0.909,1.756-1.932,1.998c-1.357,0.302-2.717-0.553-3.039-1.935c-0.302-1.35,0.58-2.704,1.927-3.006
			c1.376-0.295,2.741,0.534,3.041,1.905C660.576,230.017,660.557,230.375,660.494,230.699z M668.504,125.819
			c0.634-1.272,2.176-1.771,3.426-1.14c0,0,0,0-0.027-0.005c1.055,0.541,1.583,1.679,1.376,2.741
			c-0.046,0.227-0.141,0.444-0.229,0.658c-0.638,1.27-2.154,1.771-3.406,1.141C668.402,128.587,667.878,127.064,668.504,125.819z
			 M674.575,225.441c-0.141,0.717-0.58,1.381-1.267,1.762c-1.245,0.662-2.78,0.209-3.44-1.03c-0.662-1.238-0.209-2.778,1.028-3.44
			c1.238-0.66,2.772-0.178,3.44,1.03C674.614,224.313,674.68,224.896,674.575,225.441z M681.285,133.754
			c0.945-1.028,2.563-1.096,3.588-0.151c0.677,0.619,0.943,1.522,0.784,2.343c-0.087,0.446-0.299,0.873-0.602,1.228
			c-0.945,1.028-2.563,1.097-3.591,0.148C680.43,136.403,680.357,134.785,681.285,133.754z M686.752,216.632
			c-0.098,0.497-0.351,0.969-0.733,1.333c0,0,0,0-0.022-0.008c-0.989,0.97-2.612,0.94-3.574-0.078
			c-0.959-1.011-0.938-2.607,0.081-3.572c1.014-0.96,2.607-0.931,3.572,0.054C686.674,214.99,686.905,215.838,686.752,216.632z
			 M701.832,191.131c-0.365,1.345-1.741,2.161-3.115,1.788c-1.353-0.336-2.164-1.732-1.796-3.082
			c0.37-1.372,1.737-2.167,3.084-1.798c1.303,0.329,2.112,1.623,1.862,2.917C701.854,191.002,701.84,191.081,701.832,191.131z
			 M703.76,175.527c0.015,0.186-0.021,0.358-0.049,0.509c-0.229,1.167-1.23,2.059-2.441,2.078c-1.425,0.01-2.57-1.121-2.582-2.517
			c-0.012-1.396,1.113-2.544,2.512-2.58C702.595,173.005,703.747,174.131,703.76,175.527z M698.266,158.278
			c1.339-0.385,2.738,0.377,3.15,1.72c0.104,0.385,0.124,0.799,0.046,1.199c-0.17,0.897-0.838,1.669-1.764,1.924
			c-1.347,0.41-2.748-0.351-3.152-1.696C696.156,160.086,696.921,158.682,698.266,158.278z M696.063,204.848
			c-0.054,0.275-0.134,0.541-0.285,0.794c0,0,0,0-0.027-0.005c-0.699,1.207-2.247,1.601-3.455,0.904
			c-1.196-0.726-1.593-2.275-0.897-3.479c0.702-1.209,2.276-1.598,3.479-0.895C695.824,202.735,696.266,203.803,696.063,204.848z
			 M694.942,145.653c0.351,0.582,0.458,1.225,0.336,1.842c-0.126,0.648-0.506,1.274-1.125,1.671
			c-1.196,0.721-2.755,0.365-3.503-0.814c-0.727-1.172-0.393-2.76,0.808-3.479C692.633,144.116,694.192,144.477,694.942,145.653z"/>
		<path fill="#FF8E71" d="M661.614,96.114c-44.214-8.612-87.194,20.36-95.805,64.576c-8.612,44.219,20.355,87.197,64.571,95.809
			c44.221,8.61,87.199-20.357,95.812-64.576C734.805,147.705,705.838,104.724,661.614,96.114z M713.14,189.379
			c-7.209,37.025-43.195,61.273-80.215,54.066c-37.02-7.214-61.271-43.193-54.062-80.212c7.209-37.024,43.193-61.277,80.21-54.066
			C696.095,116.374,720.351,152.362,713.14,189.379z"/>
		<path fill="#FFEBB8" d="M934.161,511.576h-51.688v195.802h53.596c-16.195-13.49-22.255-38.177-22.521-39.288l-4.517-27.854
			c-0.016-29.276,25.622-34.01,32.797-34.758l-14.279-39.278c-0.15-0.411-0.09-0.869,0.161-1.229s0.663-0.573,1.102-0.573h59.547
			c0.438,0,0.849,0.213,1.102,0.573c0.251,0.36,0.313,0.818,0.161,1.229l-14.279,39.276c7.178,0.748,32.813,5.457,32.813,34.544
			l-4.513,27.973c-0.285,1.201-6.345,25.893-22.54,39.386h50.806c-0.382-0.712-0.62-1.516-0.62-2.38v-40.475
			c0-2.795,2.272-5.067,5.066-5.067h143.592c2.795,0,5.067,2.272,5.067,5.067v40.475c0,0.864-0.235,1.668-0.62,2.38h8.476
			c-0.383-0.712-0.621-1.516-0.621-2.38V561.402c0-2.794,2.271-5.065,5.064-5.065h40.477c2.792,0,5.065,2.271,5.065,5.065v143.596
			c0,0.864-0.239,1.668-0.622,2.38h30.188V511.576h-218.235H934.161z"/>
		<path fill="#FF8E71" d="M326.784,218.681V75.088c0-1.311-1.067-2.377-2.378-2.377h-15.816c-1.311,0-2.378,1.067-2.378,2.377
			v143.592c0,1.311,1.067,2.375,2.378,2.375h15.816C325.717,221.056,326.784,219.991,326.784,218.681z"/>
		<rect x="256.124" y="140.939" fill="#FFFFFF" width="19.332" height="68.023"/>
		<path fill="#2FBFFF" d="M363.761,218.681V75.088c0-1.311-1.066-2.377-2.377-2.377h-15.817c-1.31,0-2.38,1.067-2.38,2.377v143.592
			c0,1.311,1.07,2.375,2.38,2.375h15.817C362.695,221.056,363.761,219.991,363.761,218.681z"/>
		<rect x="192.856" y="140.939" fill="#FFFFFF" width="19.329" height="68.023"/>
		<path fill="#FFFFFF" d="M265.792,92.559c-5.93,0-10.754,4.822-10.754,10.749s4.824,10.751,10.754,10.751
			c5.927,0,10.749-4.824,10.749-10.751S271.719,92.559,265.792,92.559z"/>
		<path fill="#FF8E71" d="M251.59,290.261c-1.844,2.733-3.455,5.74-4.782,8.939c-2.595,6.239-3.911,12.812-3.911,19.541
			c0,15.88,7.501,30.953,20.124,40.571l28.804-32.87l16.859-19.242v0.002l21.361-24.377c-9.647-9.726-22.44-15.066-36.165-15.066
			c-9.163,0-18.169,2.48-26.043,7.17C261.376,278.782,255.761,284.083,251.59,290.261z"/>
		<path fill="#B1FF8F" d="M288.405,218.681V75.088c0-1.311-1.067-2.377-2.378-2.377h-40.474c-1.31,0-2.375,1.067-2.375,2.377
			v143.592c0,1.311,1.065,2.375,2.375,2.375h40.474C287.338,221.056,288.405,219.991,288.405,218.681z M278.146,210.308
			c0,0.745-0.602,1.344-1.345,1.344h-22.021c-0.746,0-1.345-0.599-1.345-1.344v-70.713c0-0.743,0.599-1.345,1.345-1.345h22.021
			c0.743,0,1.345,0.602,1.345,1.345V210.308z M265.792,116.749c-7.411,0-13.443-6.027-13.443-13.441
			c0-7.411,6.032-13.438,13.443-13.438s13.438,6.027,13.438,13.438C279.23,110.722,273.203,116.749,265.792,116.749z"/>
		<path fill="#FFE6A5" d="M298.64,339.031c8.841,0,16.036-7.194,16.036-16.038c0-4.711-2.034-9.068-5.625-12.128l-21.079,24.058
			C290.924,337.583,294.668,339.031,298.64,339.031z"/>
		<path fill="#FFEBB8" d="M1185.683,313.087h-21.09h-15.816h-21.086h-15.819h-81.876h-40.475h-22.796h-40.472h-43.78v195.799h50.344
			v-98.73h-9.977c-0.743,0-1.345-0.6-1.345-1.345v-26.049c0-0.743,0.602-1.344,1.345-1.344h142.664c0.743,0,1.345,0.602,1.345,1.344
			v26.049c0,0.745-0.602,1.345-1.345,1.345h-9.975v98.73h216.891V313.087h-70.92H1185.683z M1234.338,502.208h-134.183h-8.13
			c-0.743,0-1.346-0.602-1.346-1.345c0-0.745,0.603-1.345,1.346-1.345h6.785v-30.887h-6.785c-0.743,0-1.346-0.602-1.346-1.345
			c0-0.746,0.603-1.345,1.346-1.345h8.13h134.183c9.997,0,18.129,8.135,18.129,18.133
			C1252.467,494.073,1244.335,502.208,1234.338,502.208z M1252.467,440.417c0,9.998-8.132,18.13-18.129,18.13h-134.183h-8.13
			c-0.743,0-1.346-0.602-1.346-1.345s0.603-1.344,1.346-1.344h6.785v-30.885h-6.785c-0.743,0-1.346-0.6-1.346-1.345
			c0-0.743,0.603-1.345,1.346-1.345h8.13h134.183C1244.335,422.284,1252.467,430.418,1252.467,440.417z"/>
		<path fill="#FF8E71" d="M165.835,504.323c0,0.6,0.078,1.196,0.231,1.773c1.114,4.236,6.05,7.311,11.731,7.311h73.361
			c5.684,0,10.615-3.074,11.73-7.309c0.153-0.574,0.231-1.169,0.231-1.775c0-5.009-5.365-9.088-11.962-9.088h-73.361
			C171.2,495.235,165.835,499.314,165.835,504.323z"/>
		<path fill="#FF8E71" d="M249.363,288.758c0.955-1.416,1.996-2.78,3.087-4.101c0.092-0.112,0.18-0.229,0.273-0.341
			c1.052-1.252,2.173-2.451,3.34-3.607c0.159-0.156,0.31-0.314,0.47-0.468c1.15-1.113,2.354-2.17,3.599-3.179
			c0.197-0.161,0.397-0.322,0.599-0.48c1.252-0.987,2.543-1.917,3.876-2.79c0.09-0.056,0.171-0.126,0.261-0.185l-12.668-10.712
			c-1.031-0.875-2.339-1.357-3.686-1.357c-1.688,0-3.277,0.736-4.366,2.022l-12.162,14.379c-2.034,2.407-1.734,6.022,0.67,8.056
			l12.398,10.494c0.334-0.734,0.716-1.428,1.079-2.14c0.236-0.468,0.458-0.945,0.707-1.403
			C247.628,291.499,248.462,290.091,249.363,288.758z"/>
		<polygon fill="#D1D3D4" points="1064.159,781.085 924.185,781.085 924.185,804.449 934.161,804.449 1054.185,804.449 
			1064.159,804.449 		"/>
		<path fill="#FFFFFF" d="M1217.55,578.876c-5.927,0-10.752,4.821-10.752,10.748c0,5.929,4.825,10.752,10.752,10.752
			s10.752-4.823,10.752-10.752C1228.302,583.697,1223.477,578.876,1217.55,578.876z"/>
		<path fill="#FFFFFF" d="M202.521,92.559c-5.927,0-10.751,4.822-10.751,10.749s4.824,10.751,10.751,10.751
			c5.93,0,10.75-4.824,10.75-10.751S208.451,92.559,202.521,92.559z"/>
		<rect x="1207.883" y="627.258" fill="#FFFFFF" width="19.334" height="68.021"/>
		<path fill="#FFEBB8" d="M1010.612,818.921h-32.878c-4.3,0-7.804,3.5-7.804,7.803c0,4.305,3.504,7.806,7.804,7.806h32.878
			c4.302,0,7.804-3.501,7.804-7.806C1018.416,822.421,1014.914,818.921,1010.612,818.921z"/>
		<polygon fill="#D1D3D4" points="1064.159,384.107 924.185,384.107 924.185,407.466 934.161,407.466 1054.185,407.466 
			1064.159,407.466 		"/>
		<path fill="#FFEBB8" d="M921.186,308.021V164.427c0-2.794,2.272-5.065,5.067-5.065h40.472c2.795,0,5.067,2.271,5.067,5.065
			v143.594c0,0.863-0.236,1.665-0.618,2.375h13.901c-0.383-0.711-0.619-1.513-0.619-2.375V164.427c0-2.794,2.272-5.065,5.064-5.065
			h40.475c2.792,0,5.065,2.271,5.065,5.065v143.594c0,0.863-0.237,1.665-0.619,2.375h72.983c-0.382-0.711-0.618-1.513-0.618-2.375
			V164.427c0-2.794,2.271-5.065,5.064-5.065h15.819c2.792,0,5.064,2.271,5.064,5.065v143.594c0,0.863-0.236,1.665-0.618,2.375
			h12.192c-0.382-0.711-0.618-1.513-0.618-2.375V164.427c0-2.794,2.271-5.065,5.065-5.065h15.816c2.794,0,5.067,2.271,5.067,5.065
			v143.594c0,0.863-0.236,1.665-0.619,2.375h12.193c-0.38-0.711-0.618-1.513-0.618-2.375V164.427c0-2.794,2.275-5.065,5.066-5.065
			h15.817c2.794,0,5.066,2.271,5.066,5.065v143.594c0,0.863-0.236,1.665-0.618,2.375h66.472V118.63H882.473v191.767h39.331
			C921.422,309.686,921.186,308.884,921.186,308.021z"/>
		<path fill="#D1D3D4" d="M1240.163,704.998V561.402c0-1.311-1.066-2.375-2.375-2.375h-40.477c-1.309,0-2.376,1.064-2.376,2.375
			v143.596c0,1.313,1.067,2.38,2.376,2.38h40.477C1239.097,707.378,1240.163,706.311,1240.163,704.998z M1229.906,696.624
			c0,0.742-0.602,1.345-1.345,1.345h-22.024c-0.742,0-1.344-0.603-1.344-1.345v-70.712c0-0.744,0.602-1.344,1.344-1.344h22.024
			c0.743,0,1.345,0.6,1.345,1.344V696.624z M1217.55,603.065c-7.411,0-13.44-6.029-13.44-13.441c0-7.41,6.029-13.438,13.44-13.438
			c7.412,0,13.441,6.027,13.441,13.438C1230.991,597.036,1224.962,603.065,1217.55,603.065z"/>
		<path fill="#2FBFFF" d="M225.135,218.681V75.088c0-1.311-1.064-2.377-2.378-2.377h-40.472c-1.311,0-2.378,1.067-2.378,2.377
			v143.592c0,1.311,1.067,2.375,2.378,2.375h40.472C224.07,221.056,225.135,219.991,225.135,218.681z M214.875,210.308
			c0,0.745-0.602,1.344-1.344,1.344h-22.02c-0.743,0-1.344-0.599-1.344-1.344v-70.713c0-0.743,0.602-1.345,1.344-1.345h22.02
			c0.743,0,1.344,0.602,1.344,1.345V210.308z M202.521,116.749c-7.411,0-13.44-6.027-13.44-13.441
			c0-7.411,6.029-13.438,13.44-13.438c7.412,0,13.439,6.027,13.439,13.438C215.959,110.722,209.932,116.749,202.521,116.749z"/>
		<path fill="#FFFFFF" d="M1064.575,674.01c-5.93,0-10.753,4.824-10.753,10.752c0,5.927,4.823,10.748,10.753,10.748
			c5.926,0,10.749-4.821,10.749-10.748C1075.324,678.834,1070.501,674.01,1064.575,674.01z"/>
		<rect x="1102.204" y="675.092" fill="#FFFFFF" width="68.026" height="19.332"/>
		<path d="M728.681,192.41c8.875-45.592-20.986-89.904-66.579-98.784c-45.593-8.877-89.904,20.988-98.782,66.579
			c-8.88,45.59,20.986,89.904,66.577,98.782C675.486,267.867,719.8,237.998,728.681,192.41z M630.381,256.499
			c-44.216-8.612-73.184-51.59-64.571-95.809c8.61-44.216,51.591-73.188,95.805-64.576c44.224,8.61,73.19,51.591,64.578,95.81
			C717.58,236.142,674.602,265.109,630.381,256.499z"/>
		<path d="M659.073,109.167c-37.017-7.211-73.001,17.042-80.21,54.066c-7.209,37.02,17.042,72.998,54.062,80.212
			c37.02,7.207,73.006-17.042,80.215-54.066C720.351,152.362,696.095,116.374,659.073,109.167z M710.651,188.899
			c-6.94,35.65-41.592,59.004-77.244,52.061c-35.647-6.943-59-41.592-52.059-77.245c6.946-35.647,41.592-59.004,77.24-52.061
			C694.241,118.598,717.595,153.247,710.651,188.899z"/>
		<path d="M590.881,172.155c1.304,0.175,2.541-0.721,2.79-2.012c0.015-0.073,0.024-0.125,0.012-0.202
			c0.186-1.357-0.806-2.639-2.19-2.799c-1.408-0.175-2.66,0.796-2.831,2.207C588.497,170.732,589.488,171.985,590.881,172.155z"/>
		<path d="M593.896,185.155c0.054-0.273,0.068-0.583,0.015-0.877c-0.219-1.384-1.511-2.329-2.893-2.109
			c-1.378,0.197-2.333,1.51-2.112,2.895c0.195,1.383,1.486,2.326,2.892,2.109C592.862,187.021,593.695,186.176,593.896,185.155z"/>
		<path d="M691.4,203.062c-0.696,1.204-0.299,2.753,0.897,3.479c1.208,0.697,2.755,0.302,3.455-0.904
			c0.027,0.005,0.027,0.005,0.027,0.005c0.151-0.254,0.231-0.519,0.285-0.794c0.202-1.045-0.239-2.112-1.184-2.68
			C693.676,201.464,692.102,201.853,691.4,203.062z"/>
		<path d="M594.65,196.761c-1.296,0.575-1.852,2.09-1.272,3.365c0.578,1.276,2.074,1.825,3.348,1.248
			c0.788-0.339,1.287-1.038,1.438-1.813c0.098-0.494,0.049-1.05-0.166-1.53C597.416,196.759,595.908,196.187,594.65,196.761z"/>
		<path d="M682.503,214.308c-1.019,0.965-1.04,2.561-0.081,3.572c0.962,1.018,2.585,1.047,3.574,0.078
			c0.022,0.008,0.022,0.008,0.022,0.008c0.383-0.363,0.636-0.836,0.733-1.333c0.153-0.794-0.078-1.643-0.677-2.271
			C685.11,213.377,683.517,213.348,682.503,214.308z"/>
		<path d="M602.066,209.849c-1.079,0.897-1.208,2.5-0.307,3.579c0.877,1.072,2.473,1.204,3.558,0.302
			c0.456-0.373,0.77-0.909,0.875-1.455c0.139-0.724-0.046-1.503-0.548-2.095C604.744,209.104,603.119,208.967,602.066,209.849z"/>
		<path d="M643.162,228.925c-1.386-0.063-2.571,0.994-2.666,2.395c-0.063,1.379,0.992,2.592,2.402,2.663
			c1.277,0.064,2.381-0.828,2.617-2.046c0.02-0.102,0.044-0.227,0.046-0.353C645.647,230.207,644.565,229.016,643.162,228.925z"/>
		<path d="M594.022,157.462c1.298,0.509,2.783-0.08,3.318-1.372c0.054-0.166,0.112-0.336,0.142-0.484
			c0.229-1.172-0.363-2.368-1.513-2.826c-1.289-0.534-2.778,0.081-3.316,1.37C592.122,155.437,592.738,156.904,594.022,157.462z"/>
		<path d="M616.258,219.809c-1.16-0.794-2.735-0.507-3.53,0.658c-0.797,1.16-0.483,2.748,0.655,3.533
			c1.16,0.794,2.743,0.482,3.53-0.653c0.19-0.298,0.329-0.634,0.392-0.958C617.493,221.417,617.099,220.389,616.258,219.809z"/>
		<path d="M629.078,226.207c-1.331-0.444-2.755,0.263-3.199,1.596c-0.463,1.328,0.261,2.76,1.598,3.204
			c1.301,0.458,2.76-0.265,3.196-1.576c0.051-0.115,0.071-0.214,0.088-0.317C631.005,227.871,630.315,226.63,629.078,226.207z"/>
		<path d="M604.6,143.699c0.244-0.314,0.419-0.689,0.492-1.067c0.173-0.891-0.151-1.861-0.911-2.475
			c-1.096-0.855-2.704-0.68-3.564,0.416c-0.885,1.094-0.68,2.683,0.412,3.57C602.13,144.998,603.713,144.817,604.6,143.699z"/>
		<path d="M657.451,227.756c-1.347,0.302-2.229,1.657-1.927,3.006c0.322,1.381,1.681,2.236,3.039,1.935
			c1.023-0.241,1.742-1.028,1.932-1.998c0.063-0.324,0.083-0.682-0.002-1.038C660.191,228.29,658.827,227.461,657.451,227.756z"/>
		<path d="M670.896,222.732c-1.237,0.663-1.69,2.202-1.028,3.44c0.661,1.24,2.195,1.692,3.44,1.03
			c0.687-0.38,1.125-1.045,1.267-1.762c0.105-0.545,0.039-1.128-0.238-1.679C673.669,222.555,672.134,222.072,670.896,222.732z"/>
		<path d="M685.056,137.175c0.302-0.355,0.514-0.782,0.602-1.228c0.159-0.821-0.107-1.725-0.784-2.343
			c-1.026-0.945-2.644-0.877-3.588,0.151c-0.928,1.03-0.855,2.648,0.18,3.569C682.493,138.271,684.111,138.203,685.056,137.175z"/>
		<path d="M627.553,126.952c0.867-0.319,1.425-1.064,1.583-1.886c0.085-0.446,0.076-0.914-0.095-1.379
			c-0.498-1.286-1.961-1.964-3.27-1.491c-1.315,0.517-1.98,1.958-1.488,3.27C624.783,126.774,626.247,127.452,627.553,126.952z"/>
		<path d="M641.542,123.79c1.152-0.083,2.071-0.96,2.28-2.032c0.042-0.217,0.034-0.458,0.031-0.688
			c-0.119-1.394-1.356-2.436-2.748-2.316c-1.396,0.115-2.432,1.333-2.315,2.721C638.906,122.867,640.148,123.912,641.542,123.79z"/>
		<path d="M691.458,144.874c-1.201,0.719-1.535,2.307-0.808,3.479c0.748,1.179,2.307,1.535,3.503,0.814
			c0.619-0.397,0.999-1.023,1.125-1.671c0.122-0.617,0.015-1.26-0.336-1.842C694.192,144.477,692.633,144.116,691.458,144.874z"/>
		<path d="M655.977,124.564c0.02,0.008,0.068,0.015,0.095,0.02c1.372,0.268,2.702-0.607,2.975-2c0.266-1.369-0.636-2.707-2.007-2.97
			c-0.024-0.008-0.076-0.017-0.12-0.024c-0.029-0.005-0.08-0.017-0.104-0.022c-1.394-0.246-2.709,0.66-2.975,2.027
			c-0.266,1.367,0.633,2.702,2.034,2.952C655.899,124.55,655.921,124.553,655.977,124.564z"/>
		<path d="M700.005,188.04c-1.347-0.368-2.714,0.426-3.084,1.798c-0.368,1.35,0.443,2.746,1.796,3.082
			c1.374,0.373,2.75-0.443,3.115-1.788c0.008-0.051,0.022-0.129,0.035-0.175C702.117,189.663,701.309,188.368,700.005,188.04z"/>
		<path d="M673.05,128.073c0.088-0.214,0.183-0.431,0.229-0.658c0.207-1.062-0.322-2.2-1.376-2.741
			c0.027,0.005,0.027,0.005,0.027,0.005c-1.25-0.631-2.792-0.132-3.426,1.14c-0.626,1.245-0.102,2.768,1.141,3.394
			C670.896,129.844,672.412,129.342,673.05,128.073z"/>
		<path d="M698.688,175.598c0.012,1.396,1.157,2.526,2.582,2.517c1.211-0.02,2.212-0.911,2.441-2.078
			c0.027-0.151,0.063-0.324,0.049-0.509c-0.013-1.396-1.165-2.521-2.561-2.509C699.801,173.054,698.675,174.201,698.688,175.598z"/>
		<path d="M699.698,163.121c0.926-0.255,1.594-1.027,1.764-1.924c0.078-0.399,0.059-0.813-0.046-1.199
			c-0.412-1.343-1.811-2.105-3.15-1.72c-1.345,0.404-2.11,1.808-1.72,3.147C696.95,162.771,698.351,163.531,699.698,163.121z"/>
		<path d="M614.925,133.76c0.541-0.383,0.882-0.96,0.999-1.56c0.131-0.672-0.013-1.394-0.441-1.966
			c-0.833-1.145-2.415-1.403-3.558-0.568c-1.11,0.816-1.374,2.419-0.53,3.538C612.204,134.339,613.785,134.568,614.925,133.76z"/>
		<polygon points="644.77,175.527 610.097,194.123 611.295,196.354 646.597,177.422 646,176.307 644.736,176.243 		"/>
		<polygon points="644.77,175.527 645.403,175.191 646,176.307 647.267,176.375 648.619,149.537 646.088,149.405 		"/>
		<polygon points="644.77,175.527 644.736,176.243 646,176.307 645.403,175.191 		"/>
		<path d="M1224.195,906.029c0.444,0.08,0.873-0.01,1.272-0.167h-2.148L1224.195,906.029z"/>
		<path d="M881.129,707.378h1.344V511.576h-1.344c-0.746,0-1.346-0.603-1.346-1.345V708.72
			C879.783,707.977,880.383,707.378,881.129,707.378z"/>
		<path d="M881.129,508.886h1.344V313.087h-1.344c-0.746,0-1.346-0.602-1.346-1.345v198.489
			C879.783,509.488,880.383,508.886,881.129,508.886z"/>
		<path d="M1273.762,115.94H881.129c-0.746,0-1.346,0.602-1.346,1.345v194.457c0-0.743,0.6-1.345,1.346-1.345h1.344V118.63h389.947
			v191.767h1.342c0.743,0,1.346,0.602,1.346,1.345V117.285C1275.107,116.542,1274.505,115.94,1273.762,115.94z"/>
		<path d="M1273.762,511.576h-1.342v195.802h1.342c0.743,0,1.346,0.599,1.346,1.342V510.231
			C1275.107,510.974,1274.505,511.576,1273.762,511.576z"/>
		<path d="M1099.429,905.862h-43.899v1.344c0,0.744-0.601,1.345-1.345,1.345h49.692
			C1101.948,908.551,1100.287,907.455,1099.429,905.862z"/>
		<path d="M1273.762,313.087h-1.342v195.799h1.342c0.743,0,1.346,0.603,1.346,1.346V311.742
			C1275.107,312.485,1274.505,313.087,1273.762,313.087z"/>
		<path d="M1197.952,905.862c-0.857,1.593-2.516,2.688-4.446,2.688h29.564l-14.025-2.688H1197.952z"/>
		<path d="M1273.762,710.064h-1.342v195.798h-43.22c-0.631,1.314-1.793,2.292-3.191,2.688h47.753c0.743,0,1.346-0.601,1.346-1.345
			V708.72C1275.107,709.463,1274.505,710.064,1273.762,710.064z"/>
		<path d="M1173.243,905.862h-12.195c-0.855,1.593-2.517,2.688-4.446,2.688h21.086
			C1175.758,908.551,1174.097,907.455,1173.243,905.862z"/>
		<path d="M932.816,907.206v-1.344h-50.344V710.064h-1.344c-0.746,0-1.346-0.602-1.346-1.345v198.486c0,0.744,0.6,1.345,1.346,1.345
			h53.032C933.418,908.551,932.816,907.95,932.816,907.206z"/>
		<path d="M1136.339,905.862h-12.196c-0.857,1.593-2.52,2.688-4.448,2.688h21.088
			C1138.854,908.551,1137.191,907.455,1136.339,905.862z"/>
		<path d="M926.253,313.087c-1.932,0-3.593-1.096-4.449-2.69h-39.331v2.69H926.253z"/>
		<path d="M1127.69,313.087h21.086c-1.933,0-3.594-1.096-4.447-2.69h-12.192C1131.28,311.991,1129.619,313.087,1127.69,313.087z"/>
		<path d="M966.725,313.087h22.796c-1.929,0-3.591-1.096-4.445-2.69h-13.901C970.318,311.991,968.657,313.087,966.725,313.087z"/>
		<path d="M1201.5,313.087h70.92v-2.69h-66.472C1205.094,311.991,1203.432,313.087,1201.5,313.087z"/>
		<path d="M1029.995,313.087h81.876c-1.932,0-3.594-1.096-4.446-2.69h-72.983C1033.586,311.991,1031.924,313.087,1029.995,313.087z"
			/>
		<path d="M1164.593,313.087h21.09c-1.929,0-3.591-1.096-4.448-2.69h-12.193C1168.186,311.991,1166.524,313.087,1164.593,313.087z"
			/>
		<path d="M1273.762,310.397h-1.342v2.69h1.342c0.743,0,1.346-0.602,1.346-1.345
			C1275.107,310.999,1274.505,310.397,1273.762,310.397z"/>
		<path d="M881.129,313.087h1.344v-2.69h-1.344c-0.746,0-1.346,0.602-1.346,1.345C879.783,312.485,880.383,313.087,881.129,313.087z
			"/>
		<path d="M932.816,510.231v-1.346h-50.344v2.69h51.688C933.418,511.576,932.816,510.974,932.816,510.231z"/>
		<path d="M1055.529,510.231c0,0.742-0.601,1.345-1.345,1.345h218.235v-2.69h-216.891V510.231z"/>
		<path d="M881.129,511.576h1.344v-2.69h-1.344c-0.746,0-1.346,0.603-1.346,1.346C879.783,510.974,880.383,511.576,881.129,511.576z
			"/>
		<path d="M1273.762,508.886h-1.342v2.69h1.342c0.743,0,1.346-0.603,1.346-1.345
			C1275.107,509.488,1274.505,508.886,1273.762,508.886z"/>
		<path d="M1179.945,710.064h17.366c-1.93,0-3.589-1.097-4.443-2.687h-8.476C1183.537,708.968,1181.875,710.064,1179.945,710.064z"
			/>
		<path d="M1237.788,710.064h34.632v-2.687h-30.188C1241.377,708.968,1239.715,710.064,1237.788,710.064z"/>
		<path d="M977.099,710.064h59.255c-1.929,0-3.591-1.097-4.446-2.687h-50.806c-1.041,0.866-2.12,1.688-3.245,2.453
			C977.632,709.983,977.368,710.064,977.099,710.064z"/>
		<path d="M939.313,709.831c-1.125-0.765-2.204-1.587-3.245-2.453h-53.596v2.687h57.599
			C939.802,710.064,939.538,709.983,939.313,709.831z"/>
		<path d="M1273.762,707.378h-1.342v2.687h1.342c0.743,0,1.346-0.602,1.346-1.345S1274.505,707.378,1273.762,707.378z"/>
		<path d="M881.129,710.064h1.344v-2.687h-1.344c-0.746,0-1.346,0.599-1.346,1.342S880.383,710.064,881.129,710.064z"/>
		<rect x="932.816" y="410.156" width="2.69" height="98.73"/>
		<rect x="1052.841" y="410.156" width="2.688" height="98.73"/>
		<path d="M934.161,511.576h120.023c0.744,0,1.345-0.603,1.345-1.345v-1.346h-2.688H935.507h-2.69v1.346
			C932.816,510.974,933.418,511.576,934.161,511.576z"/>
		<path d="M934.161,407.466h-9.977v-23.359h139.975v23.359h-9.975c0.744,0,1.345,0.602,1.345,1.345v1.345h9.975
			c0.743,0,1.345-0.6,1.345-1.345v-26.049c0-0.743-0.602-1.344-1.345-1.344H922.84c-0.743,0-1.345,0.602-1.345,1.344v26.049
			c0,0.745,0.602,1.345,1.345,1.345h9.977v-1.345C932.816,408.068,933.418,407.466,934.161,407.466z"/>
		<path d="M1052.841,410.156h2.688v-1.345c0-0.743-0.601-1.345-1.345-1.345H934.161c-0.743,0-1.345,0.602-1.345,1.345v1.345h2.69
			H1052.841z"/>
		<path d="M1010.612,419.257h-32.878c-5.787,0-10.493,4.705-10.493,10.491s4.706,10.496,10.493,10.496h32.878
			c5.786,0,10.492-4.709,10.492-10.496S1016.398,419.257,1010.612,419.257z M1010.612,437.554h-32.878
			c-4.3,0-7.804-3.501-7.804-7.806c0-4.303,3.504-7.804,7.804-7.804h32.878c4.302,0,7.804,3.501,7.804,7.804
			C1018.416,434.053,1014.914,437.554,1010.612,437.554z"/>
		<rect x="1052.841" y="807.138" width="2.688" height="98.725"/>
		<rect x="932.816" y="807.138" width="2.69" height="98.725"/>
		<path d="M1055.529,907.206v-1.344h-2.688H935.507h-2.69v1.344c0,0.744,0.602,1.345,1.345,1.345h120.023
			C1054.929,908.551,1055.529,907.95,1055.529,907.206z"/>
		<path d="M934.161,804.449h-9.977v-23.364h139.975v23.364h-9.975c0.744,0,1.345,0.599,1.345,1.345v1.344h9.975
			c0.743,0,1.345-0.601,1.345-1.344V779.74c0-0.743-0.602-1.346-1.345-1.346H922.84c-0.743,0-1.345,0.603-1.345,1.346v26.054
			c0,0.743,0.602,1.344,1.345,1.344h9.977v-1.344C932.816,805.048,933.418,804.449,934.161,804.449z"/>
		<path d="M1052.841,807.138h2.688v-1.344c0-0.746-0.601-1.345-1.345-1.345H934.161c-0.743,0-1.345,0.599-1.345,1.345v1.344h2.69
			H1052.841z"/>
		<path d="M1010.612,816.23h-32.878c-5.787,0-10.493,4.707-10.493,10.493s4.706,10.496,10.493,10.496h32.878
			c5.786,0,10.492-4.71,10.492-10.496S1016.398,816.23,1010.612,816.23z M1010.612,834.529h-32.878c-4.3,0-7.804-3.501-7.804-7.806
			c0-4.303,3.504-7.803,7.804-7.803h32.878c4.302,0,7.804,3.5,7.804,7.803C1018.416,831.028,1014.914,834.529,1010.612,834.529z"/>
		<path d="M1109.493,308.021V164.427c0-1.311,1.067-2.378,2.378-2.378h15.819c1.311,0,2.374,1.067,2.374,2.378v143.594
			c0,1.311-1.063,2.375-2.374,2.375h4.446c0.382-0.711,0.618-1.513,0.618-2.375V164.427c0-2.794-2.272-5.065-5.064-5.065h-15.819
			c-2.794,0-5.064,2.271-5.064,5.065v143.594c0,0.863,0.236,1.665,0.618,2.375h4.446
			C1110.561,310.397,1109.493,309.333,1109.493,308.021z"/>
		<path d="M1111.871,313.087h15.819c1.929,0,3.59-1.096,4.446-2.69h-4.446h-15.819h-4.446
			C1108.277,311.991,1109.939,313.087,1111.871,313.087z"/>
		<path d="M923.876,308.021V164.427c0-1.311,1.067-2.378,2.377-2.378h40.472c1.313,0,2.378,1.067,2.378,2.378v143.594
			c0,1.311-1.064,2.375-2.378,2.375h4.449c0.382-0.711,0.618-1.513,0.618-2.375V164.427c0-2.794-2.272-5.065-5.067-5.065h-40.472
			c-2.795,0-5.067,2.271-5.067,5.065v143.594c0,0.863,0.236,1.665,0.618,2.375h4.449
			C924.943,310.397,923.876,309.333,923.876,308.021z"/>
		<path d="M971.174,310.397h-4.449h-40.472h-4.449c0.856,1.594,2.518,2.69,4.449,2.69h40.472
			C968.657,313.087,970.318,311.991,971.174,310.397z"/>
		<path d="M1146.4,308.021V164.427c0-1.311,1.064-2.378,2.376-2.378h15.816c1.31,0,2.377,1.067,2.377,2.378v143.594
			c0,1.311-1.067,2.375-2.377,2.375h4.448c0.383-0.711,0.619-1.513,0.619-2.375V164.427c0-2.794-2.273-5.065-5.067-5.065h-15.816
			c-2.795,0-5.065,2.271-5.065,5.065v143.594c0,0.863,0.236,1.665,0.618,2.375h4.447
			C1147.465,310.397,1146.4,309.333,1146.4,308.021z"/>
		<path d="M1148.776,313.087h15.816c1.932,0,3.593-1.096,4.448-2.69h-4.448h-15.816h-4.447
			C1145.183,311.991,1146.844,313.087,1148.776,313.087z"/>
		<path d="M1183.305,308.021V164.427c0-1.311,1.067-2.378,2.378-2.378h15.817c1.313,0,2.378,1.067,2.378,2.378v143.594
			c0,1.311-1.065,2.375-2.378,2.375h4.448c0.382-0.711,0.618-1.513,0.618-2.375V164.427c0-2.794-2.272-5.065-5.066-5.065h-15.817
			c-2.791,0-5.066,2.271-5.066,5.065v143.594c0,0.863,0.238,1.665,0.618,2.375h4.448
			C1184.372,310.397,1183.305,309.333,1183.305,308.021z"/>
		<path d="M1185.683,313.087h15.817c1.932,0,3.594-1.096,4.448-2.69h-4.448h-15.817h-4.448
			C1182.092,311.991,1183.754,313.087,1185.683,313.087z"/>
		<path d="M306.211,218.681V75.088c0-1.311,1.067-2.377,2.378-2.377h15.816c1.311,0,2.378,1.067,2.378,2.377v143.592
			c0,1.311-1.067,2.375-2.378,2.375h4.449c0.382-0.711,0.619-1.513,0.619-2.375V75.088c0-2.797-2.273-5.067-5.068-5.067h-15.816
			c-2.794,0-5.067,2.27-5.067,5.067v143.592c0,0.862,0.236,1.664,0.619,2.375h4.448
			C307.279,221.056,306.211,219.991,306.211,218.681z"/>
		<path d="M343.187,218.681V75.088c0-1.311,1.07-2.377,2.38-2.377h15.817c1.311,0,2.377,1.067,2.377,2.377v143.592
			c0,1.311-1.066,2.375-2.377,2.375h4.449c0.382-0.711,0.619-1.513,0.619-2.375V75.088c0-2.797-2.273-5.067-5.067-5.067h-15.817
			c-2.794,0-5.067,2.27-5.067,5.067v143.592c0,0.862,0.236,1.664,0.619,2.375h4.448
			C344.257,221.056,343.187,219.991,343.187,218.681z"/>
		<path d="M1124.762,759.892c0-2.792-2.273-5.064-5.067-5.064h-15.817c-2.794,0-5.066,2.272-5.066,5.064v143.593
			c0,0.861,0.238,1.666,0.618,2.378h4.448c-1.311,0-2.377-1.067-2.377-2.378V759.892c0-1.309,1.066-2.376,2.377-2.376h15.817
			c1.311,0,2.378,1.067,2.378,2.376v143.593c0,1.311-1.067,2.378-2.378,2.378h4.448c0.38-0.712,0.619-1.517,0.619-2.378V759.892z"/>
		<path d="M1124.143,905.862h-4.448h-15.817h-4.448c0.858,1.593,2.52,2.688,4.448,2.688h15.817
			C1121.623,908.551,1123.285,907.455,1124.143,905.862z"/>
		<path d="M1161.666,759.892c0-2.792-2.271-5.064-5.064-5.064h-15.819c-2.791,0-5.065,2.272-5.065,5.064v143.593
			c0,0.861,0.236,1.666,0.622,2.378h4.443c-1.311,0-2.375-1.067-2.375-2.378V759.892c0-1.309,1.064-2.376,2.375-2.376h15.819
			c1.309,0,2.375,1.067,2.375,2.376v143.593c0,1.311-1.066,2.378-2.375,2.378h4.446c0.38-0.712,0.618-1.517,0.618-2.378V759.892z"/>
		<path d="M1161.048,905.862h-4.446h-15.819h-4.443c0.853,1.593,2.515,2.688,4.443,2.688h15.819
			C1158.531,908.551,1160.192,907.455,1161.048,905.862z"/>
		<path d="M1198.571,759.892c0-2.792-2.273-5.064-5.065-5.064h-15.818c-2.792,0-5.065,2.272-5.065,5.064v143.593
			c0,0.861,0.236,1.666,0.621,2.378h4.444c-1.312,0-2.378-1.067-2.378-2.378V759.892c0-1.309,1.066-2.376,2.378-2.376h15.818
			c1.311,0,2.376,1.067,2.376,2.376v143.593c0,1.311-1.065,2.378-2.376,2.378h4.446c0.38-0.712,0.619-1.517,0.619-2.378V759.892z"/>
		<path d="M1197.952,905.862h-4.446h-15.818h-4.444c0.854,1.593,2.515,2.688,4.444,2.688h15.818
			C1195.437,908.551,1197.095,907.455,1197.952,905.862z"/>
		<path d="M1256.628,763.614c0.521-2.741-1.282-5.401-4.024-5.933l-15.537-2.972c-2.779-0.539-5.407,1.329-5.927,4.021
			l-27.007,141.031c-0.521,2.744,1.284,5.405,4.022,5.929l0.89,0.171h14.274l-14.659-2.814c-1.284-0.244-2.13-1.494-1.887-2.782
			l27.01-141.026c0.211-1.119,1.195-1.931,2.338-1.931c0.145,0,0.296,0.013,0.441,0.042l15.533,2.972
			c1.29,0.249,2.135,1.501,1.891,2.787l-27.008,141.027c-0.156,0.818-0.768,1.432-1.511,1.726h3.732
			c0.185-0.386,0.339-0.79,0.421-1.225L1256.628,763.614z"/>
		<path d="M1223.694,908.67c0.316,0.062,0.629,0.091,0.938,0.091c0.478,0,0.937-0.083,1.377-0.21h-2.938L1223.694,908.67z"/>
		<path d="M1229.2,905.862h-3.732c-0.399,0.157-0.828,0.247-1.272,0.167l-0.876-0.167h-14.274l14.025,2.688h2.938
			C1227.407,908.154,1228.569,907.177,1229.2,905.862z"/>
		<path d="M957.498,227.59h-22.019c-0.743,0-1.345,0.6-1.345,1.345v70.713c0,0.743,0.602,1.344,1.345,1.344h22.019
			c0.744,0,1.346-0.601,1.346-1.344v-70.713C958.844,228.19,958.242,227.59,957.498,227.59z M956.154,298.304h-19.33v-68.026h19.33
			V298.304z"/>
		<path d="M946.488,179.21c-7.41,0-13.44,6.028-13.44,13.439s6.03,13.441,13.44,13.441c7.412,0,13.439-6.03,13.439-13.441
			S953.9,179.21,946.488,179.21z M946.488,203.4c-5.927,0-10.75-4.824-10.75-10.751c0-5.928,4.823-10.75,10.75-10.75
			c5.931,0,10.749,4.822,10.749,10.75C957.237,198.576,952.419,203.4,946.488,203.4z"/>
		<path d="M987.146,308.021V164.427c0-1.311,1.064-2.378,2.375-2.378h40.475c1.311,0,2.378,1.067,2.378,2.378v143.594
			c0,1.311-1.067,2.375-2.378,2.375h4.446c0.382-0.711,0.619-1.513,0.619-2.375V164.427c0-2.794-2.273-5.065-5.065-5.065h-40.475
			c-2.792,0-5.064,2.271-5.064,5.065v143.594c0,0.863,0.236,1.665,0.619,2.375h4.445
			C988.21,310.397,987.146,309.333,987.146,308.021z"/>
		<path d="M989.521,313.087h40.475c1.929,0,3.591-1.096,4.446-2.69h-4.446h-40.475h-4.445
			C985.93,311.991,987.592,313.087,989.521,313.087z"/>
		<path d="M1020.769,227.59h-22.021c-0.745,0-1.345,0.6-1.345,1.345v70.713c0,0.743,0.6,1.344,1.345,1.344h22.021
			c0.743,0,1.345-0.601,1.345-1.344v-70.713C1022.113,228.19,1021.512,227.59,1020.769,227.59z M1019.424,298.304h-19.332v-68.026
			h19.332V298.304z"/>
		<path d="M1009.759,179.21c-7.41,0-13.442,6.028-13.442,13.439s6.032,13.441,13.442,13.441c7.412,0,13.439-6.03,13.439-13.441
			S1017.171,179.21,1009.759,179.21z M1009.759,203.4c-5.929,0-10.754-4.824-10.754-10.751c0-5.928,4.825-10.75,10.754-10.75
			s10.75,4.822,10.75,10.75C1020.509,198.576,1015.688,203.4,1009.759,203.4z"/>
		<path d="M179.907,218.681V75.088c0-1.311,1.067-2.377,2.378-2.377h40.472c1.313,0,2.378,1.067,2.378,2.377v143.592
			c0,1.311-1.064,2.375-2.378,2.375h4.449c0.382-0.711,0.619-1.513,0.619-2.375V75.088c0-2.797-2.273-5.067-5.067-5.067h-40.472
			c-2.794,0-5.067,2.27-5.067,5.067v143.592c0,0.862,0.236,1.664,0.619,2.375h4.449
			C180.975,221.056,179.907,219.991,179.907,218.681z"/>
		<path d="M213.531,138.25h-22.02c-0.743,0-1.344,0.602-1.344,1.345v70.713c0,0.745,0.602,1.344,1.344,1.344h22.02
			c0.743,0,1.344-0.599,1.344-1.344v-70.713C214.875,138.851,214.273,138.25,213.531,138.25z M212.186,208.962h-19.329v-68.023
			h19.329V208.962z"/>
		<path d="M202.521,89.87c-7.411,0-13.44,6.027-13.44,13.438c0,7.414,6.029,13.441,13.44,13.441c7.412,0,13.439-6.027,13.439-13.441
			C215.959,95.897,209.932,89.87,202.521,89.87z M202.521,114.06c-5.927,0-10.751-4.824-10.751-10.751s4.824-10.749,10.751-10.749
			c5.93,0,10.75,4.822,10.75,10.749S208.451,114.06,202.521,114.06z"/>
		<path d="M243.178,218.681V75.088c0-1.311,1.065-2.377,2.375-2.377h40.474c1.311,0,2.378,1.067,2.378,2.377v143.592
			c0,1.311-1.067,2.375-2.378,2.375h4.446c0.382-0.711,0.619-1.513,0.619-2.375V75.088c0-2.797-2.273-5.067-5.065-5.067h-40.474
			c-2.792,0-5.064,2.27-5.064,5.067v143.592c0,0.862,0.236,1.664,0.618,2.375h4.446
			C244.243,221.056,243.178,219.991,243.178,218.681z"/>
		<path d="M276.801,138.25h-22.021c-0.746,0-1.345,0.602-1.345,1.345v70.713c0,0.745,0.599,1.344,1.345,1.344h22.021
			c0.743,0,1.345-0.599,1.345-1.344v-70.713C278.146,138.851,277.544,138.25,276.801,138.25z M275.456,208.962h-19.332v-68.023
			h19.332V208.962z"/>
		<path d="M265.792,89.87c-7.411,0-13.443,6.027-13.443,13.438c0,7.414,6.032,13.441,13.443,13.441s13.438-6.027,13.438-13.441
			C279.23,95.897,273.203,89.87,265.792,89.87z M265.792,114.06c-5.93,0-10.754-4.824-10.754-10.751s4.824-10.749,10.754-10.749
			c5.927,0,10.749,4.822,10.749,10.749S271.719,114.06,265.792,114.06z"/>
		<path d="M1194.936,704.998V561.402c0-1.311,1.067-2.375,2.376-2.375h40.477c1.309,0,2.375,1.064,2.375,2.375v143.596
			c0,1.313-1.066,2.38-2.375,2.38h4.443c0.383-0.712,0.622-1.516,0.622-2.38V561.402c0-2.794-2.273-5.065-5.065-5.065h-40.477
			c-2.794,0-5.064,2.271-5.064,5.065v143.596c0,0.864,0.238,1.668,0.621,2.38h4.443
			C1196.003,707.378,1194.936,706.311,1194.936,704.998z"/>
		<path d="M1197.312,710.064h40.477c1.927,0,3.589-1.097,4.443-2.687h-4.443h-40.477h-4.443
			C1193.723,708.968,1195.382,710.064,1197.312,710.064z"/>
		<path d="M1228.562,624.568h-22.024c-0.742,0-1.344,0.6-1.344,1.344v70.712c0,0.742,0.602,1.345,1.344,1.345h22.024
			c0.743,0,1.345-0.603,1.345-1.345v-70.712C1229.906,625.168,1229.305,624.568,1228.562,624.568z M1227.217,695.278h-19.334
			v-68.021h19.334V695.278z"/>
		<path d="M1217.55,576.187c-7.411,0-13.44,6.027-13.44,13.438c0,7.412,6.029,13.441,13.44,13.441
			c7.412,0,13.441-6.029,13.441-13.441C1230.991,582.214,1224.962,576.187,1217.55,576.187z M1217.55,600.376
			c-5.927,0-10.752-4.823-10.752-10.752c0-5.927,4.825-10.748,10.752-10.748s10.752,4.821,10.752,10.748
			C1228.302,595.553,1223.477,600.376,1217.55,600.376z"/>
		<path d="M1033.976,704.998v-40.475c0-1.311,1.067-2.378,2.378-2.378h143.592c1.312,0,2.379,1.067,2.379,2.378v40.475
			c0,1.313-1.067,2.38-2.379,2.38h4.447c0.385-0.712,0.62-1.516,0.62-2.38v-40.475c0-2.795-2.272-5.067-5.067-5.067h-143.592
			c-2.794,0-5.066,2.272-5.066,5.067v40.475c0,0.864,0.238,1.668,0.62,2.38h4.446
			C1035.043,707.378,1033.976,706.311,1033.976,704.998z"/>
		<path d="M1036.354,710.064h143.592c1.93,0,3.592-1.097,4.447-2.687h-4.447h-143.592h-4.446
			C1032.763,708.968,1034.425,710.064,1036.354,710.064z"/>
		<path d="M1171.575,672.402h-70.717c-0.742,0-1.344,0.602-1.344,1.345v22.021c0,0.743,0.602,1.345,1.344,1.345h70.717
			c0.743,0,1.342-0.602,1.342-1.345v-22.021C1172.917,673.004,1172.318,672.402,1171.575,672.402z M1170.23,694.424h-68.026v-19.332
			h68.026V694.424z"/>
		<path d="M1064.575,671.32c-7.41,0-13.442,6.029-13.442,13.441c0,7.411,6.032,13.438,13.442,13.438
			c7.412,0,13.439-6.027,13.439-13.438C1078.015,677.35,1071.987,671.32,1064.575,671.32z M1064.575,695.51
			c-5.93,0-10.753-4.821-10.753-10.748c0-5.928,4.823-10.752,10.753-10.752c5.926,0,10.749,4.824,10.749,10.752
			C1075.324,690.688,1070.501,695.51,1064.575,695.51z"/>
		<path d="M1100.155,465.942h-8.13c-0.743,0-1.346,0.599-1.346,1.345c0,0.743,0.603,1.345,1.346,1.345h6.785v-1.345
			C1098.811,466.541,1099.412,465.942,1100.155,465.942z"/>
		<path d="M1098.811,500.863v-1.345h-6.785c-0.743,0-1.346,0.6-1.346,1.345c0,0.743,0.603,1.345,1.346,1.345h8.13
			C1099.412,502.208,1098.811,501.606,1098.811,500.863z"/>
		<path d="M1232.994,500.863v-1.345H1101.5v-30.887h131.494v-1.345c0-0.746,0.601-1.345,1.344-1.345h-134.183
			c0.743,0,1.345,0.599,1.345,1.345c0,0.743-0.602,1.345-1.345,1.345h-1.345v30.887h1.345c0.743,0,1.345,0.6,1.345,1.345
			c0,0.743-0.602,1.345-1.345,1.345h134.183C1233.595,502.208,1232.994,501.606,1232.994,500.863z"/>
		<path d="M1101.5,467.287c0-0.746-0.602-1.345-1.345-1.345s-1.345,0.599-1.345,1.345v1.345h1.345
			C1100.898,468.631,1101.5,468.03,1101.5,467.287z"/>
		<path d="M1101.5,500.863c0-0.745-0.602-1.345-1.345-1.345h-1.345v1.345c0,0.743,0.602,1.345,1.345,1.345
			S1101.5,501.606,1101.5,500.863z"/>
		<path d="M1234.338,465.942c0.744,0,1.345,0.599,1.345,1.345v1.401c7.887,0.684,14.097,7.326,14.097,15.387
			c0,8.062-6.21,14.704-14.097,15.385v1.403c0,0.743-0.601,1.345-1.345,1.345c9.997,0,18.129-8.135,18.129-18.133
			C1252.467,474.077,1244.335,465.942,1234.338,465.942z"/>
		<path d="M1235.683,500.863v-1.403v-10.381c0,0.743-0.601,1.342-1.345,1.342h-1.344v9.097v1.345c0,0.743,0.601,1.345,1.344,1.345
			C1235.082,502.208,1235.683,501.606,1235.683,500.863z"/>
		<path d="M1234.338,480.411h-1.344v7.323h1.344c0.744,0,1.345,0.602,1.345,1.345v-10.011
			C1235.683,479.809,1235.082,480.411,1234.338,480.411z"/>
		<path d="M1232.994,467.287v1.345v9.092h1.344c0.744,0,1.345,0.6,1.345,1.345v-10.381v-1.401c0-0.746-0.601-1.345-1.345-1.345
			C1233.595,465.942,1232.994,466.541,1232.994,467.287z"/>
		<path d="M1162.305,479.068c0,0.741,0.602,1.343,1.346,1.343h69.344v-2.688h-69.344
			C1162.906,477.723,1162.305,478.323,1162.305,479.068z"/>
		<path d="M1234.338,480.411c0.744,0,1.345-0.602,1.345-1.343c0-0.745-0.601-1.345-1.345-1.345h-1.344v2.688H1234.338z"/>
		<path d="M1146.759,487.734c-0.743,0-1.343,0.602-1.343,1.345s0.6,1.342,1.343,1.342h86.235v-2.687H1146.759z"/>
		<path d="M1234.338,487.734h-1.344v2.687h1.344c0.744,0,1.345-0.599,1.345-1.342S1235.082,487.734,1234.338,487.734z"/>
		<path d="M1100.155,422.284h-8.13c-0.743,0-1.346,0.602-1.346,1.345c0,0.745,0.603,1.345,1.346,1.345h6.785v-1.345
			C1098.811,422.886,1099.412,422.284,1100.155,422.284z"/>
		<path d="M1098.811,457.203v-1.344h-6.785c-0.743,0-1.346,0.601-1.346,1.344s0.603,1.345,1.346,1.345h8.13
			C1099.412,458.547,1098.811,457.946,1098.811,457.203z"/>
		<path d="M1101.5,423.628c0,0.745-0.602,1.345-1.345,1.345h-1.345v30.885h1.345c0.743,0,1.345,0.601,1.345,1.344
			s-0.602,1.345-1.345,1.345h134.183c-0.743,0-1.344-0.602-1.344-1.345v-1.344H1101.5v-30.885h131.494v-1.345
			c0-0.743,0.601-1.345,1.344-1.345h-134.183C1100.898,422.284,1101.5,422.886,1101.5,423.628z"/>
		<path d="M1101.5,423.628c0-0.743-0.602-1.345-1.345-1.345s-1.345,0.602-1.345,1.345v1.345h1.345
			C1100.898,424.974,1101.5,424.374,1101.5,423.628z"/>
		<path d="M1101.5,457.203c0-0.743-0.602-1.344-1.345-1.344h-1.345v1.344c0,0.743,0.602,1.345,1.345,1.345
			S1101.5,457.946,1101.5,457.203z"/>
		<path d="M1235.683,423.628v1.403c7.887,0.682,14.097,7.324,14.097,15.385s-6.21,14.7-14.097,15.385v1.4
			c0,0.743-0.601,1.345-1.345,1.345c9.997,0,18.129-8.132,18.129-18.13c0-9.999-8.132-18.133-18.129-18.133
			C1235.082,422.284,1235.683,422.886,1235.683,423.628z"/>
		<path d="M1234.338,436.757h-1.344v7.321h1.344c0.744,0,1.345,0.599,1.345,1.345v-10.01
			C1235.683,436.156,1235.082,436.757,1234.338,436.757z"/>
		<path d="M1232.994,423.628v1.345v9.094h1.344c0.744,0,1.345,0.602,1.345,1.345v-10.381v-1.403c0-0.743-0.601-1.345-1.345-1.345
			C1233.595,422.284,1232.994,422.886,1232.994,423.628z"/>
		<path d="M1235.683,457.203v-1.4v-10.379c0,0.741-0.601,1.342-1.345,1.342h-1.344v9.093v1.344c0,0.743,0.601,1.345,1.344,1.345
			C1235.082,458.547,1235.683,457.946,1235.683,457.203z"/>
		<path d="M1162.305,435.413c0,0.743,0.602,1.344,1.346,1.344h69.344v-2.689h-69.344
			C1162.906,434.068,1162.305,434.669,1162.305,435.413z"/>
		<path d="M1234.338,436.757c0.744,0,1.345-0.602,1.345-1.344c0-0.744-0.601-1.345-1.345-1.345h-1.344v2.689H1234.338z"/>
		<path d="M1146.759,444.079c-0.743,0-1.343,0.599-1.343,1.345c0,0.741,0.6,1.342,1.343,1.342h86.235v-2.687H1146.759z"/>
		<path d="M1234.338,444.079h-1.344v2.687h1.344c0.744,0,1.345-0.602,1.345-1.342
			C1235.683,444.678,1235.082,444.079,1234.338,444.079z"/>
		<path d="M916.181,667.562l-4.477-27.542c0-30.992,30.711-31.967,32.02-31.993c0.434-0.009,0.838-0.225,1.085-0.583
			c0.243-0.358,0.302-0.813,0.153-1.22l-14.231-39.138h55.709l-14.231,39.138c-0.148,0.406-0.09,0.861,0.157,1.22
			c0.245,0.358,0.647,0.574,1.081,0.583c1.309,0.026,32.021,1.001,32.035,31.778l-4.476,27.659
			c-0.066,0.28-6.785,27.697-24.323,39.914h4.419c16.195-13.493,22.255-38.185,22.54-39.386l4.513-27.973
			c0-29.087-25.635-33.796-32.813-34.544l14.279-39.276c0.151-0.411,0.09-0.869-0.161-1.229c-0.253-0.36-0.663-0.573-1.102-0.573
			h-59.547c-0.438,0-0.851,0.213-1.102,0.573s-0.312,0.818-0.161,1.229l14.279,39.278c-7.175,0.748-32.813,5.481-32.797,34.758
			l4.517,27.854c0.266,1.111,6.325,25.798,22.521,39.288h4.42C922.969,695.175,916.23,667.744,916.181,667.562z"/>
		<path d="M940.071,710.064h37.027c0.27,0,0.533-0.081,0.758-0.233c1.125-0.765,2.204-1.587,3.245-2.453h-4.419h-36.194h-4.42
			c1.041,0.866,2.12,1.688,3.245,2.453C939.538,709.983,939.802,710.064,940.071,710.064z"/>
		<path d="M212.339,494.563l-1.163-2.016h-33.379c-8.079,0-14.652,5.285-14.652,11.775c0,0.833,0.107,1.661,0.322,2.458
			c1.42,5.396,7.448,9.316,14.331,9.316h73.361c6.885,0,12.912-3.92,14.33-9.31c0.212-0.791,0.321-1.622,0.321-2.465
			c0-6.49-6.573-11.775-14.651-11.775h-36.878l0.387,0.673L212.339,494.563z M263.121,504.323c0,0.606-0.078,1.201-0.231,1.775
			c-1.116,4.234-6.047,7.309-11.73,7.309h-73.361c-5.682,0-10.618-3.074-11.731-7.311c-0.153-0.577-0.231-1.174-0.231-1.773
			c0-5.009,5.365-9.088,11.962-9.088h73.361C257.756,495.235,263.121,499.314,263.121,504.323z"/>
		<path d="M298.64,341.72c10.325,0,18.726-8.4,18.726-18.728c0-5.494-2.388-10.556-6.561-14.128l-24.597,28.066
			C289.652,340.022,294.008,341.72,298.64,341.72z M314.675,322.993c0,8.844-7.194,16.038-16.036,16.038
			c-3.971,0-7.716-1.447-10.668-4.108l21.079-24.058C312.641,313.925,314.675,318.281,314.675,322.993z"/>
		<polygon points="291.825,326.443 308.685,307.203 308.685,307.201 		"/>
		<path d="M246.133,294.349c-0.363,0.711-0.745,1.406-1.079,2.14l-12.398-10.494c-2.405-2.034-2.705-5.649-0.67-8.056l12.162-14.379
			c1.089-1.287,2.678-2.022,4.366-2.022c1.347,0,2.655,0.483,3.686,1.357l12.668,10.712c-0.09,0.059-0.17,0.129-0.261,0.185
			c0.614-0.399,1.226-0.799,1.854-1.174c0.277-0.166,0.567-0.307,0.85-0.468l-13.375-11.307c-3.401-2.89-8.96-2.424-11.84,0.977
			l-12.165,14.381c-2.992,3.542-2.548,8.858,0.987,11.848l12.542,10.615l1.023-0.831
			C244.988,296.639,245.553,295.49,246.133,294.349z"/>
		<path d="M256.063,280.709c0.159-0.154,0.31-0.314,0.47-0.468C256.373,280.395,256.222,280.553,256.063,280.709z"/>
		<path d="M260.731,276.582c-0.202,0.158-0.402,0.319-0.599,0.48C260.329,276.901,260.529,276.74,260.731,276.582z"/>
		<path d="M249.363,288.758c-0.901,1.333-1.735,2.741-2.524,4.188C247.628,291.499,248.462,290.091,249.363,288.758z"/>
		<path d="M252.723,284.316c-0.093,0.112-0.181,0.229-0.273,0.341C252.542,284.545,252.63,284.429,252.723,284.316z"/>
		<path d="M252.45,284.658c-1.091,1.321-2.132,2.685-3.087,4.101C250.318,287.343,251.359,285.979,252.45,284.658z"/>
		<path d="M264.607,273.792c-1.333,0.872-2.624,1.803-3.876,2.79C261.983,275.595,263.277,274.664,264.607,273.792z"/>
		<path d="M284.292,335.04l7.533-8.597l-28.804,32.87c-12.623-9.618-20.124-24.691-20.124-40.571c0-6.729,1.316-13.302,3.911-19.541
			l-0.707,1.7l-0.55-0.467l-2.885,2.341c-1.62,5.17-2.456,10.52-2.456,15.967c0,17.147,8.303,33.402,22.216,43.48l0.991,0.716
			l22.79-26.007c-0.361-0.324-0.721-0.648-1.062-1.003L284.292,335.04z"/>
		<path d="M252.723,284.316c1.052-1.252,2.173-2.451,3.34-3.607C254.896,281.866,253.775,283.064,252.723,284.316z"/>
		<path d="M260.132,277.062c-1.245,1.009-2.448,2.066-3.599,3.179C257.684,279.128,258.887,278.07,260.132,277.062z"/>
		<path d="M246.133,294.349c0.236-0.468,0.458-0.947,0.707-1.403C246.591,293.404,246.369,293.881,246.133,294.349z"/>
		<path d="M332.848,281.856c-10.25-10.823-24.088-16.786-38.966-16.786c-9.323,0-18.481,2.46-26.57,7.08l2.144,1.813l-1.617,0.967
			c7.874-4.689,16.881-7.17,26.043-7.17c13.724,0,26.517,5.34,36.165,15.066l-21.361,24.377l0.994,0.729
			c0.395,0.292,0.756,0.616,1.126,0.933l22.886-26.12L332.848,281.856z"/>
		<path d="M308.685,307.203l-16.859,19.24l-7.533,8.597l0.853,0.887c0.341,0.355,0.701,0.679,1.062,1.003l24.597-28.066
			c-0.37-0.317-0.731-0.641-1.126-0.933L308.685,307.203z"/>
		<path d="M264.607,273.792c-1.33,0.872-2.624,1.803-3.876,2.79c-0.202,0.158-0.402,0.319-0.599,0.48
			c-1.245,1.009-2.448,2.066-3.599,3.179c-0.161,0.154-0.312,0.314-0.47,0.468c-1.167,1.157-2.288,2.355-3.34,3.607
			c-0.093,0.112-0.181,0.229-0.273,0.341c-1.091,1.321-2.132,2.685-3.087,4.101c-0.901,1.333-1.735,2.741-2.524,4.188
			c-0.249,0.456-0.47,0.935-0.707,1.403c-0.58,1.141-1.145,2.29-1.649,3.484l0.234-0.19l1.698,2.085l-0.865,0.705l0.55,0.467
			l0.707-1.7c1.327-3.199,2.938-6.206,4.782-8.939c4.171-6.179,9.787-11.479,16.248-15.332l1.617-0.967l-2.144-1.813
			c-0.283,0.161-0.573,0.302-0.85,0.468C265.833,272.993,265.221,273.393,264.607,273.792z"/>
		<path d="M243.46,298.664l-82.736,67.251c0.614,0.653,1.184,1.347,1.7,2.083l80.242-65.224c0.388-1.233,0.843-2.451,1.32-3.664
			L243.46,298.664z"/>
		<path d="M211.177,492.548h3.104l-56.7-98.26c-0.741,0.504-1.527,0.936-2.336,1.33L211.177,492.548z"/>
		<polygon points="212.339,494.563 214.668,493.221 214.281,492.548 211.177,492.548 		"/>
		<path d="M244.325,298.167c0.047-0.115,0.11-0.219,0.159-0.334l-1.023,0.831l0.526,0.446
			C244.108,298.798,244.196,298.477,244.325,298.167z"/>
		<path d="M243.986,299.11c-0.478,1.213-0.933,2.431-1.32,3.664l2.885-2.341L243.986,299.11z"/>
		<path d="M244.718,297.643l-0.234,0.19c-0.049,0.115-0.112,0.219-0.159,0.334c-0.128,0.309-0.216,0.63-0.338,0.942l1.564,1.323
			l0.865-0.705L244.718,297.643z"/>
		<path d="M163.146,378.752c0,5.46-2.743,10.286-6.914,13.195l1.35,2.341c4.978-3.379,8.254-9.08,8.254-15.536
			c0-4-1.267-7.706-3.411-10.754l-2.085,1.693C162.107,372.274,163.146,375.395,163.146,378.752z"/>
		<path d="M147.064,394.832c-8.866,0-16.082-7.214-16.082-16.08c0-8.868,7.216-16.084,16.082-16.084
			c4.543,0,8.646,1.902,11.572,4.943l2.088-1.695c-3.428-3.645-8.276-5.938-13.66-5.938c-10.352,0-18.772,8.424-18.772,18.774
			s8.42,18.769,18.772,18.769c2.936,0,5.703-0.697,8.181-1.903l-1.347-2.332C151.822,394.266,149.51,394.832,147.064,394.832z"/>
		<path d="M158.636,367.611c0.621,0.646,1.196,1.337,1.703,2.081l2.085-1.693c-0.516-0.735-1.086-1.43-1.7-2.083L158.636,367.611z"
			/>
		<path d="M153.897,393.287l1.347,2.332c0.809-0.395,1.596-0.826,2.336-1.33l-1.35-2.341
			C155.496,392.458,154.714,392.902,153.897,393.287z"/>
		<path d="M733.185,451.222l0.149-1.176h-6.501l0.042,1.3l-2.688,0.085l-0.043-1.386h-7.156l0.086,1.252l-2.686,0.183l-0.098-1.435
			h-7.523l0.208,1.091l-2.644,0.504l-0.305-1.596h-5.64l1.876,66.052h38.557l1.871-66.052h-4.648l-0.19,1.513L733.185,451.222z
			 M736.206,513.407h-33.331l-1.723-60.675h36.773L736.206,513.407z"/>
		<polygon points="739.176,403.553 733.334,450.045 736.043,450.045 741.844,403.89 		"/>
		<polygon points="733.185,451.222 735.853,451.558 736.043,450.045 733.334,450.045 		"/>
		<polygon points="725.516,408.582 722.828,408.667 724.145,450.045 726.833,450.045 		"/>
		<polygon points="726.875,451.346 726.833,450.045 724.145,450.045 724.188,451.431 		"/>
		<polygon points="713.531,399.005 710.847,399.19 714.291,450.045 716.988,450.045 		"/>
		<polygon points="717.074,451.297 716.988,450.045 714.291,450.045 714.389,451.48 		"/>
		<polygon points="698.807,408.373 696.164,408.877 704.027,450.045 706.768,450.045 		"/>
		<polygon points="706.976,451.137 706.768,450.045 704.027,450.045 704.332,451.641 		"/>
		<path d="M241.106,221.056h-13.901c-0.855,1.594-2.517,2.689-4.449,2.689h22.796C243.624,223.746,241.962,222.65,241.106,221.056z"
			/>
		<path d="M341.119,221.056h-12.264c-0.855,1.594-2.517,2.689-4.449,2.689h21.161C343.635,223.746,341.974,222.65,341.119,221.056z"
			/>
		<path d="M426.133,221.056h-60.3c-0.855,1.594-2.517,2.689-4.449,2.689h64.749c0.743,0,1.345-0.599,1.345-1.344
			C427.478,221.66,426.876,221.056,426.133,221.056z"/>
		<path d="M304.141,221.056h-13.668c-0.855,1.594-2.517,2.689-4.446,2.689h22.563C306.657,223.746,304.996,222.65,304.141,221.056z"
			/>
		<path d="M177.836,221.056h-48.199c-0.743,0-1.345,0.604-1.345,1.345c0,0.745,0.602,1.344,1.345,1.344h52.648
			C180.354,223.746,178.691,222.65,177.836,221.056z"/>
		<path d="M328.854,221.056h-4.449h-15.816h-4.448c0.855,1.594,2.516,2.689,4.448,2.689h15.816
			C326.337,223.746,328,222.65,328.854,221.056z"/>
		<path d="M365.833,221.056h-4.449h-15.817h-4.448c0.855,1.594,2.517,2.689,4.448,2.689h15.817
			C363.315,223.746,364.977,222.65,365.833,221.056z"/>
		<path d="M227.206,221.056h-4.449h-40.472h-4.449c0.855,1.594,2.517,2.689,4.449,2.689h40.472
			C224.688,223.746,226.35,222.65,227.206,221.056z"/>
		<path d="M290.473,221.056h-4.446h-40.474h-4.446c0.855,1.594,2.517,2.689,4.446,2.689h40.474
			C287.957,223.746,289.618,222.65,290.473,221.056z"/>
	</g>
	<g>
		<path fill="#FFFFFF" d="M549.882,406.618c-8.547,0-15.498,6.953-15.498,15.5c0,8.544,6.951,15.494,15.498,15.494
			c8.546,0,15.499-6.95,15.499-15.494C565.381,413.571,558.428,406.618,549.882,406.618z"/>
		<path d="M637.542,348.042H462.224c-4.541,0-8.234,3.693-8.234,8.232v131.679c0,4.543,3.693,8.24,8.234,8.24h175.318
			c4.539,0,8.232-3.696,8.232-8.24V356.275C645.774,351.736,642.08,348.042,637.542,348.042z M643.086,487.954
			c0,3.06-2.487,5.549-5.545,5.549H462.224c-3.057,0-5.547-2.489-5.547-5.549V356.275c0-3.055,2.49-5.542,5.547-5.542h175.318
			c3.058,0,5.545,2.487,5.545,5.542V487.954z"/>
		<path d="M453.99,507.865c0,4.539,3.693,8.232,8.234,8.232h175.318c4.539,0,8.232-3.693,8.232-8.232v-7.475H453.99V507.865z
			 M456.677,503.081h186.41v4.784c0,3.055-2.487,5.542-5.545,5.542H462.224c-3.057,0-5.547-2.487-5.547-5.542V503.081z"/>
		<path d="M549.882,403.928c-10.028,0-18.188,8.162-18.188,18.19c0,10.025,8.159,18.184,18.188,18.184
			c10.027,0,18.189-8.159,18.189-18.184C568.071,412.09,559.909,403.928,549.882,403.928z M549.882,437.612
			c-8.547,0-15.498-6.95-15.498-15.494c0-8.547,6.951-15.5,15.498-15.5c8.546,0,15.499,6.953,15.499,15.5
			C565.381,430.662,558.428,437.612,549.882,437.612z"/>
		<path fill="#D1D3D4" d="M637.542,350.732H462.224c-3.057,0-5.547,2.487-5.547,5.542v131.679c0,3.06,2.49,5.549,5.547,5.549
			h175.318c3.058,0,5.545-2.489,5.545-5.549V356.275C643.086,353.22,640.599,350.732,637.542,350.732z M549.882,440.302
			c-10.028,0-18.188-8.159-18.188-18.184c0-10.028,8.159-18.19,18.188-18.19c10.027,0,18.189,8.162,18.189,18.19
			C568.071,432.143,559.909,440.302,549.882,440.302z"/>
		<path fill="#D1D3D4" d="M462.224,513.407h175.318c3.058,0,5.545-2.487,5.545-5.542v-4.784h-186.41v4.784
			C456.677,510.92,459.167,513.407,462.224,513.407z"/>
	</g>
</g>
</svg>
